ISO-10303-21;
HEADER;
/* Generated by software containing ST-Developer
 * from STEP Tools, Inc. (www.steptools.com) 
 */
/* OPTION: using custom renumber hook */

FILE_DESCRIPTION(
/* description */ ('STEP AP242 Edition 2',
'CAx-IF Rec.Pracs.---Representation and Presentation of Product Manufa
cturing Information (PMI)---4.0---2014-10-13',
'CAx-IF Rec.Pracs.---3D Tessellated Geometry---0.4---2014-09-14','2;1',
'CAx-IF Rec.Pracs.---User Defined Attributes---1.5---2016-08-15'),
/* implementation_level */ '2;1');

FILE_NAME(
/* name */ 'Part Studio 1',
/* time_stamp */ '2026-08-29T22:33:49Z',
/* author */ (''),
/* organization */ (''),
/* preprocessor_version */ 'ST-DEVELOPER v20',
/* originating_system */ 'ONSHAPE BY PTC INC, 1.220',
/* authorisation */ '  ');

FILE_SCHEMA (('AP242_MANAGED_MODEL_BASED_3D_ENGINEERING_MIM_LF { 1 0 10303 442 3 1 4 }'));
ENDSEC;

DATA;
#10=SHAPE_REPRESENTATION_RELATIONSHIP('','',#533,#11);
#11=ADVANCED_BREP_SHAPE_REPRESENTATION('',(#531),#840);
#12=CYLINDRICAL_SURFACE('',#561,0.006731);
#13=CYLINDRICAL_SURFACE('',#562,0.006731);
#14=CYLINDRICAL_SURFACE('',#566,0.00762);
#15=CIRCLE('',#539,0.00762);
#16=CIRCLE('',#543,0.006731);
#17=CIRCLE('',#546,0.006731);
#18=CIRCLE('',#548,0.00762);
#19=CIRCLE('',#550,0.006731);
#20=CIRCLE('',#558,0.006731);
#21=ORIENTED_EDGE('',*,*,#159,.T.);
#22=ORIENTED_EDGE('',*,*,#160,.T.);
#23=ORIENTED_EDGE('',*,*,#161,.T.);
#24=ORIENTED_EDGE('',*,*,#162,.F.);
#25=ORIENTED_EDGE('',*,*,#163,.T.);
#26=ORIENTED_EDGE('',*,*,#164,.T.);
#27=ORIENTED_EDGE('',*,*,#165,.F.);
#28=ORIENTED_EDGE('',*,*,#166,.F.);
#29=ORIENTED_EDGE('',*,*,#167,.F.);
#30=ORIENTED_EDGE('',*,*,#168,.F.);
#31=ORIENTED_EDGE('',*,*,#169,.F.);
#32=ORIENTED_EDGE('',*,*,#170,.F.);
#33=ORIENTED_EDGE('',*,*,#171,.T.);
#34=ORIENTED_EDGE('',*,*,#172,.T.);
#35=ORIENTED_EDGE('',*,*,#173,.F.);
#36=ORIENTED_EDGE('',*,*,#174,.T.);
#37=ORIENTED_EDGE('',*,*,#175,.F.);
#38=ORIENTED_EDGE('',*,*,#176,.T.);
#39=ORIENTED_EDGE('',*,*,#177,.T.);
#40=ORIENTED_EDGE('',*,*,#178,.F.);
#41=ORIENTED_EDGE('',*,*,#179,.F.);
#42=ORIENTED_EDGE('',*,*,#180,.F.);
#43=ORIENTED_EDGE('',*,*,#162,.T.);
#44=ORIENTED_EDGE('',*,*,#181,.F.);
#45=ORIENTED_EDGE('',*,*,#182,.T.);
#46=ORIENTED_EDGE('',*,*,#183,.T.);
#47=ORIENTED_EDGE('',*,*,#169,.T.);
#48=ORIENTED_EDGE('',*,*,#184,.T.);
#49=ORIENTED_EDGE('',*,*,#185,.T.);
#50=ORIENTED_EDGE('',*,*,#186,.F.);
#51=ORIENTED_EDGE('',*,*,#171,.F.);
#52=ORIENTED_EDGE('',*,*,#187,.F.);
#53=ORIENTED_EDGE('',*,*,#163,.F.);
#54=ORIENTED_EDGE('',*,*,#180,.T.);
#55=ORIENTED_EDGE('',*,*,#188,.T.);
#56=ORIENTED_EDGE('',*,*,#189,.F.);
#57=ORIENTED_EDGE('',*,*,#172,.F.);
#58=ORIENTED_EDGE('',*,*,#186,.T.);
#59=ORIENTED_EDGE('',*,*,#190,.F.);
#60=ORIENTED_EDGE('',*,*,#191,.F.);
#61=ORIENTED_EDGE('',*,*,#192,.F.);
#62=ORIENTED_EDGE('',*,*,#175,.T.);
#63=ORIENTED_EDGE('',*,*,#193,.F.);
#64=ORIENTED_EDGE('',*,*,#194,.T.);
#65=ORIENTED_EDGE('',*,*,#195,.T.);
#66=ORIENTED_EDGE('',*,*,#166,.T.);
#67=ORIENTED_EDGE('',*,*,#196,.T.);
#68=ORIENTED_EDGE('',*,*,#197,.T.);
#69=ORIENTED_EDGE('',*,*,#198,.F.);
#70=ORIENTED_EDGE('',*,*,#176,.F.);
#71=ORIENTED_EDGE('',*,*,#192,.T.);
#72=ORIENTED_EDGE('',*,*,#199,.T.);
#73=ORIENTED_EDGE('',*,*,#200,.T.);
#74=ORIENTED_EDGE('',*,*,#201,.F.);
#75=ORIENTED_EDGE('',*,*,#159,.F.);
#76=ORIENTED_EDGE('',*,*,#202,.F.);
#77=ORIENTED_EDGE('',*,*,#203,.F.);
#78=ORIENTED_EDGE('',*,*,#204,.T.);
#79=ORIENTED_EDGE('',*,*,#177,.F.);
#80=ORIENTED_EDGE('',*,*,#198,.T.);
#81=ORIENTED_EDGE('',*,*,#205,.F.);
#82=ORIENTED_EDGE('',*,*,#206,.F.);
#83=ORIENTED_EDGE('',*,*,#196,.F.);
#84=ORIENTED_EDGE('',*,*,#207,.F.);
#85=ORIENTED_EDGE('',*,*,#208,.T.);
#86=ORIENTED_EDGE('',*,*,#209,.T.);
#87=ORIENTED_EDGE('',*,*,#160,.F.);
#88=ORIENTED_EDGE('',*,*,#201,.T.);
#89=ORIENTED_EDGE('',*,*,#210,.F.);
#90=ORIENTED_EDGE('',*,*,#211,.F.);
#91=ORIENTED_EDGE('',*,*,#184,.F.);
#92=ORIENTED_EDGE('',*,*,#168,.T.);
#93=ORIENTED_EDGE('',*,*,#212,.F.);
#94=ORIENTED_EDGE('',*,*,#213,.T.);
#95=ORIENTED_EDGE('',*,*,#214,.T.);
#96=ORIENTED_EDGE('',*,*,#173,.T.);
#97=ORIENTED_EDGE('',*,*,#189,.T.);
#98=ORIENTED_EDGE('',*,*,#191,.T.);
#99=ORIENTED_EDGE('',*,*,#206,.T.);
#100=ORIENTED_EDGE('',*,*,#200,.F.);
#101=ORIENTED_EDGE('',*,*,#197,.F.);
#102=ORIENTED_EDGE('',*,*,#179,.T.);
#103=ORIENTED_EDGE('',*,*,#211,.T.);
#104=ORIENTED_EDGE('',*,*,#188,.F.);
#105=ORIENTED_EDGE('',*,*,#185,.F.);
#106=ORIENTED_EDGE('',*,*,#167,.T.);
#107=ORIENTED_EDGE('',*,*,#195,.F.);
#108=ORIENTED_EDGE('',*,*,#215,.F.);
#109=ORIENTED_EDGE('',*,*,#212,.T.);
#110=ORIENTED_EDGE('',*,*,#174,.F.);
#111=ORIENTED_EDGE('',*,*,#214,.F.);
#112=ORIENTED_EDGE('',*,*,#216,.T.);
#113=ORIENTED_EDGE('',*,*,#193,.T.);
#114=ORIENTED_EDGE('',*,*,#213,.F.);
#115=ORIENTED_EDGE('',*,*,#215,.T.);
#116=ORIENTED_EDGE('',*,*,#194,.F.);
#117=ORIENTED_EDGE('',*,*,#216,.F.);
#118=ORIENTED_EDGE('',*,*,#217,.T.);
#119=ORIENTED_EDGE('',*,*,#187,.T.);
#120=ORIENTED_EDGE('',*,*,#218,.F.);
#121=ORIENTED_EDGE('',*,*,#219,.F.);
#122=ORIENTED_EDGE('',*,*,#217,.F.);
#123=ORIENTED_EDGE('',*,*,#220,.F.);
#124=ORIENTED_EDGE('',*,*,#221,.T.);
#125=ORIENTED_EDGE('',*,*,#202,.T.);
#126=ORIENTED_EDGE('',*,*,#164,.F.);
#127=ORIENTED_EDGE('',*,*,#222,.F.);
#128=ORIENTED_EDGE('',*,*,#219,.T.);
#129=ORIENTED_EDGE('',*,*,#223,.F.);
#130=ORIENTED_EDGE('',*,*,#224,.F.);
#131=ORIENTED_EDGE('',*,*,#220,.T.);
#132=ORIENTED_EDGE('',*,*,#218,.T.);
#133=ORIENTED_EDGE('',*,*,#170,.T.);
#134=ORIENTED_EDGE('',*,*,#204,.F.);
#135=ORIENTED_EDGE('',*,*,#225,.F.);
#136=ORIENTED_EDGE('',*,*,#223,.T.);
#137=ORIENTED_EDGE('',*,*,#203,.T.);
#138=ORIENTED_EDGE('',*,*,#221,.F.);
#139=ORIENTED_EDGE('',*,*,#224,.T.);
#140=ORIENTED_EDGE('',*,*,#225,.T.);
#141=ORIENTED_EDGE('',*,*,#222,.T.);
#142=ORIENTED_EDGE('',*,*,#199,.F.);
#143=ORIENTED_EDGE('',*,*,#190,.T.);
#144=ORIENTED_EDGE('',*,*,#210,.T.);
#145=ORIENTED_EDGE('',*,*,#165,.T.);
#146=ORIENTED_EDGE('',*,*,#183,.F.);
#147=ORIENTED_EDGE('',*,*,#226,.F.);
#148=ORIENTED_EDGE('',*,*,#207,.T.);
#149=ORIENTED_EDGE('',*,*,#161,.F.);
#150=ORIENTED_EDGE('',*,*,#209,.F.);
#151=ORIENTED_EDGE('',*,*,#227,.T.);
#152=ORIENTED_EDGE('',*,*,#181,.T.);
#153=ORIENTED_EDGE('',*,*,#208,.F.);
#154=ORIENTED_EDGE('',*,*,#226,.T.);
#155=ORIENTED_EDGE('',*,*,#182,.F.);
#156=ORIENTED_EDGE('',*,*,#227,.F.);
#157=ORIENTED_EDGE('',*,*,#178,.T.);
#158=ORIENTED_EDGE('',*,*,#205,.T.);
#159=EDGE_CURVE('',#228,#229,#275,.T.);
#160=EDGE_CURVE('',#229,#230,#276,.T.);
#161=EDGE_CURVE('',#230,#231,#277,.T.);
#162=EDGE_CURVE('',#232,#231,#278,.T.);
#163=EDGE_CURVE('',#232,#233,#279,.T.);
#164=EDGE_CURVE('',#233,#228,#280,.T.);
#165=EDGE_CURVE('',#234,#235,#281,.T.);
#166=EDGE_CURVE('',#236,#234,#282,.T.);
#167=EDGE_CURVE('',#237,#236,#283,.T.);
#168=EDGE_CURVE('',#238,#237,#284,.T.);
#169=EDGE_CURVE('',#235,#238,#285,.T.);
#170=EDGE_CURVE('',#239,#240,#286,.T.);
#171=EDGE_CURVE('',#239,#241,#287,.T.);
#172=EDGE_CURVE('',#241,#242,#288,.T.);
#173=EDGE_CURVE('',#243,#242,#289,.T.);
#174=EDGE_CURVE('',#243,#244,#290,.T.);
#175=EDGE_CURVE('',#245,#244,#291,.T.);
#176=EDGE_CURVE('',#245,#246,#292,.T.);
#177=EDGE_CURVE('',#246,#240,#293,.T.);
#178=EDGE_CURVE('',#247,#247,#15,.T.);
#179=EDGE_CURVE('',#248,#249,#294,.T.);
#180=EDGE_CURVE('',#232,#248,#295,.T.);
#181=EDGE_CURVE('',#250,#231,#296,.T.);
#182=EDGE_CURVE('',#250,#251,#297,.T.);
#183=EDGE_CURVE('',#251,#235,#298,.T.);
#184=EDGE_CURVE('',#238,#249,#299,.T.);
#185=EDGE_CURVE('',#248,#252,#300,.T.);
#186=EDGE_CURVE('',#241,#252,#301,.T.);
#187=EDGE_CURVE('',#233,#239,#302,.T.);
#188=EDGE_CURVE('',#252,#253,#303,.T.);
#189=EDGE_CURVE('',#242,#253,#304,.T.);
#190=EDGE_CURVE('',#254,#254,#16,.T.);
#191=EDGE_CURVE('',#255,#256,#305,.T.);
#192=EDGE_CURVE('',#245,#255,#306,.T.);
#193=EDGE_CURVE('',#257,#244,#307,.T.);
#194=EDGE_CURVE('',#257,#258,#308,.T.);
#195=EDGE_CURVE('',#258,#236,#309,.T.);
#196=EDGE_CURVE('',#234,#256,#310,.T.);
#197=EDGE_CURVE('',#255,#259,#311,.T.);
#198=EDGE_CURVE('',#246,#259,#312,.T.);
#199=EDGE_CURVE('',#260,#260,#17,.T.);
#200=EDGE_CURVE('',#259,#261,#313,.T.);
#201=EDGE_CURVE('',#229,#261,#314,.T.);
#202=EDGE_CURVE('',#262,#228,#315,.T.);
#203=EDGE_CURVE('',#263,#262,#316,.T.);
#204=EDGE_CURVE('',#263,#240,#317,.T.);
#205=EDGE_CURVE('',#264,#264,#18,.T.);
#206=EDGE_CURVE('',#256,#261,#318,.T.);
#207=EDGE_CURVE('',#265,#234,#319,.T.);
#208=EDGE_CURVE('',#265,#266,#320,.T.);
#209=EDGE_CURVE('',#266,#230,#321,.T.);
#210=EDGE_CURVE('',#267,#267,#19,.T.);
#211=EDGE_CURVE('',#249,#253,#322,.T.);
#212=EDGE_CURVE('',#268,#237,#323,.T.);
#213=EDGE_CURVE('',#268,#269,#324,.T.);
#214=EDGE_CURVE('',#269,#243,#325,.T.);
#215=EDGE_CURVE('',#268,#258,#326,.T.);
#216=EDGE_CURVE('',#269,#257,#327,.T.);
#217=EDGE_CURVE('',#270,#233,#328,.T.);
#218=EDGE_CURVE('',#271,#239,#329,.T.);
#219=EDGE_CURVE('',#270,#271,#330,.T.);
#220=EDGE_CURVE('',#272,#270,#331,.T.);
#221=EDGE_CURVE('',#272,#262,#332,.T.);
#222=EDGE_CURVE('',#273,#273,#20,.T.);
#223=EDGE_CURVE('',#274,#271,#333,.T.);
#224=EDGE_CURVE('',#272,#274,#334,.T.);
#225=EDGE_CURVE('',#274,#263,#335,.T.);
#226=EDGE_CURVE('',#265,#251,#336,.T.);
#227=EDGE_CURVE('',#266,#250,#337,.T.);
#228=VERTEX_POINT('',#699);
#229=VERTEX_POINT('',#700);
#230=VERTEX_POINT('',#702);
#231=VERTEX_POINT('',#704);
#232=VERTEX_POINT('',#706);
#233=VERTEX_POINT('',#708);
#234=VERTEX_POINT('',#712);
#235=VERTEX_POINT('',#713);
#236=VERTEX_POINT('',#715);
#237=VERTEX_POINT('',#717);
#238=VERTEX_POINT('',#719);
#239=VERTEX_POINT('',#723);
#240=VERTEX_POINT('',#724);
#241=VERTEX_POINT('',#726);
#242=VERTEX_POINT('',#728);
#243=VERTEX_POINT('',#730);
#244=VERTEX_POINT('',#732);
#245=VERTEX_POINT('',#734);
#246=VERTEX_POINT('',#736);
#247=VERTEX_POINT('',#740);
#248=VERTEX_POINT('',#742);
#249=VERTEX_POINT('',#743);
#250=VERTEX_POINT('',#746);
#251=VERTEX_POINT('',#748);
#252=VERTEX_POINT('',#753);
#253=VERTEX_POINT('',#758);
#254=VERTEX_POINT('',#762);
#255=VERTEX_POINT('',#764);
#256=VERTEX_POINT('',#765);
#257=VERTEX_POINT('',#768);
#258=VERTEX_POINT('',#770);
#259=VERTEX_POINT('',#775);
#260=VERTEX_POINT('',#779);
#261=VERTEX_POINT('',#781);
#262=VERTEX_POINT('',#784);
#263=VERTEX_POINT('',#786);
#264=VERTEX_POINT('',#790);
#265=VERTEX_POINT('',#793);
#266=VERTEX_POINT('',#795);
#267=VERTEX_POINT('',#799);
#268=VERTEX_POINT('',#802);
#269=VERTEX_POINT('',#804);
#270=VERTEX_POINT('',#814);
#271=VERTEX_POINT('',#816);
#272=VERTEX_POINT('',#820);
#273=VERTEX_POINT('',#824);
#274=VERTEX_POINT('',#826);
#275=LINE('',#698,#338);
#276=LINE('',#701,#339);
#277=LINE('',#703,#340);
#278=LINE('',#705,#341);
#279=LINE('',#707,#342);
#280=LINE('',#709,#343);
#281=LINE('',#711,#344);
#282=LINE('',#714,#345);
#283=LINE('',#716,#346);
#284=LINE('',#718,#347);
#285=LINE('',#720,#348);
#286=LINE('',#722,#349);
#287=LINE('',#725,#350);
#288=LINE('',#727,#351);
#289=LINE('',#729,#352);
#290=LINE('',#731,#353);
#291=LINE('',#733,#354);
#292=LINE('',#735,#355);
#293=LINE('',#737,#356);
#294=LINE('',#741,#357);
#295=LINE('',#744,#358);
#296=LINE('',#745,#359);
#297=LINE('',#747,#360);
#298=LINE('',#749,#361);
#299=LINE('',#750,#362);
#300=LINE('',#752,#363);
#301=LINE('',#754,#364);
#302=LINE('',#755,#365);
#303=LINE('',#757,#366);
#304=LINE('',#759,#367);
#305=LINE('',#763,#368);
#306=LINE('',#766,#369);
#307=LINE('',#767,#370);
#308=LINE('',#769,#371);
#309=LINE('',#771,#372);
#310=LINE('',#772,#373);
#311=LINE('',#774,#374);
#312=LINE('',#776,#375);
#313=LINE('',#780,#376);
#314=LINE('',#782,#377);
#315=LINE('',#783,#378);
#316=LINE('',#785,#379);
#317=LINE('',#787,#380);
#318=LINE('',#791,#381);
#319=LINE('',#792,#382);
#320=LINE('',#794,#383);
#321=LINE('',#796,#384);
#322=LINE('',#800,#385);
#323=LINE('',#801,#386);
#324=LINE('',#803,#387);
#325=LINE('',#805,#388);
#326=LINE('',#808,#389);
#327=LINE('',#810,#390);
#328=LINE('',#813,#391);
#329=LINE('',#815,#392);
#330=LINE('',#817,#393);
#331=LINE('',#819,#394);
#332=LINE('',#821,#395);
#333=LINE('',#825,#396);
#334=LINE('',#827,#397);
#335=LINE('',#829,#398);
#336=LINE('',#834,#399);
#337=LINE('',#836,#400);
#338=VECTOR('',#571,1.);
#339=VECTOR('',#572,1.);
#340=VECTOR('',#573,1.);
#341=VECTOR('',#574,1.);
#342=VECTOR('',#575,1.);
#343=VECTOR('',#576,1.);
#344=VECTOR('',#579,1.);
#345=VECTOR('',#580,1.);
#346=VECTOR('',#581,1.);
#347=VECTOR('',#582,1.);
#348=VECTOR('',#583,1.);
#349=VECTOR('',#586,1.);
#350=VECTOR('',#587,1.);
#351=VECTOR('',#588,1.);
#352=VECTOR('',#589,1.);
#353=VECTOR('',#590,1.);
#354=VECTOR('',#591,1.);
#355=VECTOR('',#592,1.);
#356=VECTOR('',#593,1.);
#357=VECTOR('',#598,1.);
#358=VECTOR('',#599,1.);
#359=VECTOR('',#600,1.);
#360=VECTOR('',#601,1.);
#361=VECTOR('',#602,1.);
#362=VECTOR('',#603,1.);
#363=VECTOR('',#606,1.);
#364=VECTOR('',#607,1.);
#365=VECTOR('',#608,1.);
#366=VECTOR('',#611,1.);
#367=VECTOR('',#612,1.);
#368=VECTOR('',#617,1.);
#369=VECTOR('',#618,1.);
#370=VECTOR('',#619,1.);
#371=VECTOR('',#620,1.);
#372=VECTOR('',#621,1.);
#373=VECTOR('',#622,1.);
#374=VECTOR('',#625,1.);
#375=VECTOR('',#626,1.);
#376=VECTOR('',#631,1.);
#377=VECTOR('',#632,1.);
#378=VECTOR('',#633,1.);
#379=VECTOR('',#634,1.);
#380=VECTOR('',#635,1.);
#381=VECTOR('',#640,1.);
#382=VECTOR('',#641,1.);
#383=VECTOR('',#642,1.);
#384=VECTOR('',#643,1.);
#385=VECTOR('',#648,1.);
#386=VECTOR('',#649,1.);
#387=VECTOR('',#650,1.);
#388=VECTOR('',#651,1.);
#389=VECTOR('',#656,1.);
#390=VECTOR('',#659,1.);
#391=VECTOR('',#664,1.);
#392=VECTOR('',#665,1.);
#393=VECTOR('',#666,1.);
#394=VECTOR('',#669,1.);
#395=VECTOR('',#670,1.);
#396=VECTOR('',#675,1.);
#397=VECTOR('',#676,1.);
#398=VECTOR('',#679,1.);
#399=VECTOR('',#688,1.);
#400=VECTOR('',#691,1.);
#401=EDGE_LOOP('',(#21,#22,#23,#24,#25,#26));
#402=EDGE_LOOP('',(#27,#28,#29,#30,#31));
#403=EDGE_LOOP('',(#32,#33,#34,#35,#36,#37,#38,#39));
#404=EDGE_LOOP('',(#40));
#405=EDGE_LOOP('',(#41,#42,#43,#44,#45,#46,#47,#48));
#406=EDGE_LOOP('',(#49,#50,#51,#52,#53,#54));
#407=EDGE_LOOP('',(#55,#56,#57,#58));
#408=EDGE_LOOP('',(#59));
#409=EDGE_LOOP('',(#60,#61,#62,#63,#64,#65,#66,#67));
#410=EDGE_LOOP('',(#68,#69,#70,#71));
#411=EDGE_LOOP('',(#72));
#412=EDGE_LOOP('',(#73,#74,#75,#76,#77,#78,#79,#80));
#413=EDGE_LOOP('',(#81));
#414=EDGE_LOOP('',(#82,#83,#84,#85,#86,#87,#88));
#415=EDGE_LOOP('',(#89));
#416=EDGE_LOOP('',(#90,#91,#92,#93,#94,#95,#96,#97));
#417=EDGE_LOOP('',(#98,#99,#100,#101));
#418=EDGE_LOOP('',(#102,#103,#104,#105));
#419=EDGE_LOOP('',(#106,#107,#108,#109));
#420=EDGE_LOOP('',(#110,#111,#112,#113));
#421=EDGE_LOOP('',(#114,#115,#116,#117));
#422=EDGE_LOOP('',(#118,#119,#120,#121));
#423=EDGE_LOOP('',(#122,#123,#124,#125,#126));
#424=EDGE_LOOP('',(#127));
#425=EDGE_LOOP('',(#128,#129,#130,#131));
#426=EDGE_LOOP('',(#132,#133,#134,#135,#136));
#427=EDGE_LOOP('',(#137,#138,#139,#140));
#428=EDGE_LOOP('',(#141));
#429=EDGE_LOOP('',(#142));
#430=EDGE_LOOP('',(#143));
#431=EDGE_LOOP('',(#144));
#432=EDGE_LOOP('',(#145,#146,#147,#148));
#433=EDGE_LOOP('',(#149,#150,#151,#152));
#434=EDGE_LOOP('',(#153,#154,#155,#156));
#435=EDGE_LOOP('',(#157));
#436=EDGE_LOOP('',(#158));
#437=FACE_BOUND('',#401,.T.);
#438=FACE_BOUND('',#402,.T.);
#439=FACE_BOUND('',#403,.T.);
#440=FACE_BOUND('',#404,.T.);
#441=FACE_BOUND('',#405,.T.);
#442=FACE_BOUND('',#406,.T.);
#443=FACE_BOUND('',#407,.T.);
#444=FACE_BOUND('',#408,.T.);
#445=FACE_BOUND('',#409,.T.);
#446=FACE_BOUND('',#410,.T.);
#447=FACE_BOUND('',#411,.T.);
#448=FACE_BOUND('',#412,.T.);
#449=FACE_BOUND('',#413,.T.);
#450=FACE_BOUND('',#414,.T.);
#451=FACE_BOUND('',#415,.T.);
#452=FACE_BOUND('',#416,.T.);
#453=FACE_BOUND('',#417,.T.);
#454=FACE_BOUND('',#418,.T.);
#455=FACE_BOUND('',#419,.T.);
#456=FACE_BOUND('',#420,.T.);
#457=FACE_BOUND('',#421,.T.);
#458=FACE_BOUND('',#422,.T.);
#459=FACE_BOUND('',#423,.T.);
#460=FACE_BOUND('',#424,.T.);
#461=FACE_BOUND('',#425,.T.);
#462=FACE_BOUND('',#426,.T.);
#463=FACE_BOUND('',#427,.T.);
#464=FACE_BOUND('',#428,.T.);
#465=FACE_BOUND('',#429,.T.);
#466=FACE_BOUND('',#430,.T.);
#467=FACE_BOUND('',#431,.T.);
#468=FACE_BOUND('',#432,.T.);
#469=FACE_BOUND('',#433,.T.);
#470=FACE_BOUND('',#434,.T.);
#471=FACE_BOUND('',#435,.T.);
#472=FACE_BOUND('',#436,.T.);
#473=PLANE('',#535);
#474=PLANE('',#536);
#475=PLANE('',#537);
#476=PLANE('',#538);
#477=PLANE('',#540);
#478=PLANE('',#541);
#479=PLANE('',#542);
#480=PLANE('',#544);
#481=PLANE('',#545);
#482=PLANE('',#547);
#483=PLANE('',#549);
#484=PLANE('',#551);
#485=PLANE('',#552);
#486=PLANE('',#553);
#487=PLANE('',#554);
#488=PLANE('',#555);
#489=PLANE('',#556);
#490=PLANE('',#557);
#491=PLANE('',#559);
#492=PLANE('',#560);
#493=PLANE('',#563);
#494=PLANE('',#564);
#495=PLANE('',#565);
#496=ADVANCED_FACE('',(#437),#473,.T.);
#497=ADVANCED_FACE('',(#438),#474,.T.);
#498=ADVANCED_FACE('',(#439),#475,.T.);
#499=ADVANCED_FACE('',(#440,#441),#476,.T.);
#500=ADVANCED_FACE('',(#442),#477,.F.);
#501=ADVANCED_FACE('',(#443),#478,.F.);
#502=ADVANCED_FACE('',(#444,#445),#479,.T.);
#503=ADVANCED_FACE('',(#446),#480,.F.);
#504=ADVANCED_FACE('',(#447,#448),#481,.F.);
#505=ADVANCED_FACE('',(#449,#450),#482,.T.);
#506=ADVANCED_FACE('',(#451,#452),#483,.T.);
#507=ADVANCED_FACE('',(#453,#454),#484,.F.);
#508=ADVANCED_FACE('',(#455),#485,.F.);
#509=ADVANCED_FACE('',(#456),#486,.T.);
#510=ADVANCED_FACE('',(#457),#487,.T.);
#511=ADVANCED_FACE('',(#458),#488,.F.);
#512=ADVANCED_FACE('',(#459),#489,.T.);
#513=ADVANCED_FACE('',(#460,#461),#490,.F.);
#514=ADVANCED_FACE('',(#462),#491,.F.);
#515=ADVANCED_FACE('',(#463),#492,.T.);
#516=ADVANCED_FACE('',(#464,#465),#12,.F.);
#517=ADVANCED_FACE('',(#466,#467),#13,.F.);
#518=ADVANCED_FACE('',(#468),#493,.F.);
#519=ADVANCED_FACE('',(#469),#494,.T.);
#520=ADVANCED_FACE('',(#470),#495,.T.);
#521=ADVANCED_FACE('',(#471,#472),#14,.F.);
#522=CLOSED_SHELL('',(#496,#497,#498,#499,#500,#501,#502,#503,#504,#505,
#506,#507,#508,#509,#510,#511,#512,#513,#514,#515,#516,#517,#518,#519,#520,
#521));
#523=STYLED_ITEM('',(#524),#531);
#524=PRESENTATION_STYLE_ASSIGNMENT((#525));
#525=SURFACE_STYLE_USAGE(.BOTH.,#526);
#526=SURFACE_SIDE_STYLE('',(#527));
#527=SURFACE_STYLE_FILL_AREA(#528);
#528=FILL_AREA_STYLE('',(#529));
#529=FILL_AREA_STYLE_COLOUR('',#530);
#530=COLOUR_RGB('',0.615686274509804,0.811764705882353,0.929411764705882);
#531=MANIFOLD_SOLID_BREP('Part 1',#522);
#532=SHAPE_DEFINITION_REPRESENTATION(#845,#533);
#533=SHAPE_REPRESENTATION('Part 1',(#534),#840);
#534=AXIS2_PLACEMENT_3D('',#696,#567,#568);
#535=AXIS2_PLACEMENT_3D('',#697,#569,#570);
#536=AXIS2_PLACEMENT_3D('',#710,#577,#578);
#537=AXIS2_PLACEMENT_3D('',#721,#584,#585);
#538=AXIS2_PLACEMENT_3D('',#738,#594,#595);
#539=AXIS2_PLACEMENT_3D('',#739,#596,#597);
#540=AXIS2_PLACEMENT_3D('',#751,#604,#605);
#541=AXIS2_PLACEMENT_3D('',#756,#609,#610);
#542=AXIS2_PLACEMENT_3D('',#760,#613,#614);
#543=AXIS2_PLACEMENT_3D('',#761,#615,#616);
#544=AXIS2_PLACEMENT_3D('',#773,#623,#624);
#545=AXIS2_PLACEMENT_3D('',#777,#627,#628);
#546=AXIS2_PLACEMENT_3D('',#778,#629,#630);
#547=AXIS2_PLACEMENT_3D('',#788,#636,#637);
#548=AXIS2_PLACEMENT_3D('',#789,#638,#639);
#549=AXIS2_PLACEMENT_3D('',#797,#644,#645);
#550=AXIS2_PLACEMENT_3D('',#798,#646,#647);
#551=AXIS2_PLACEMENT_3D('',#806,#652,#653);
#552=AXIS2_PLACEMENT_3D('',#807,#654,#655);
#553=AXIS2_PLACEMENT_3D('',#809,#657,#658);
#554=AXIS2_PLACEMENT_3D('',#811,#660,#661);
#555=AXIS2_PLACEMENT_3D('',#812,#662,#663);
#556=AXIS2_PLACEMENT_3D('',#818,#667,#668);
#557=AXIS2_PLACEMENT_3D('',#822,#671,#672);
#558=AXIS2_PLACEMENT_3D('',#823,#673,#674);
#559=AXIS2_PLACEMENT_3D('',#828,#677,#678);
#560=AXIS2_PLACEMENT_3D('',#830,#680,#681);
#561=AXIS2_PLACEMENT_3D('',#831,#682,#683);
#562=AXIS2_PLACEMENT_3D('',#832,#684,#685);
#563=AXIS2_PLACEMENT_3D('',#833,#686,#687);
#564=AXIS2_PLACEMENT_3D('',#835,#689,#690);
#565=AXIS2_PLACEMENT_3D('',#837,#692,#693);
#566=AXIS2_PLACEMENT_3D('',#838,#694,#695);
#567=DIRECTION('',(0.,0.,1.));
#568=DIRECTION('',(1.,0.,0.));
#569=DIRECTION('',(0.,0.,1.));
#570=DIRECTION('',(1.,0.,0.));
#571=DIRECTION('',(0.,-1.,0.));
#572=DIRECTION('',(1.,0.,0.));
#573=DIRECTION('',(0.,-1.,0.));
#574=DIRECTION('',(-1.,-1.0897852775875E-16,0.));
#575=DIRECTION('',(0.,1.,0.));
#576=DIRECTION('',(-1.,0.,0.));
#577=DIRECTION('',(0.,0.,1.));
#578=DIRECTION('',(1.,0.,0.));
#579=DIRECTION('',(0.,-1.,0.));
#580=DIRECTION('',(-2.61958169557296E-16,-1.,0.));
#581=DIRECTION('',(1.,0.,0.));
#582=DIRECTION('',(-2.4320461239711E-16,1.,0.));
#583=DIRECTION('',(-1.,-1.0897852775875E-16,0.));
#584=DIRECTION('',(0.,0.,1.));
#585=DIRECTION('',(1.,0.,0.));
#586=DIRECTION('',(-1.,0.,0.));
#587=DIRECTION('',(0.,1.,0.));
#588=DIRECTION('',(-1.,-1.0897852775875E-16,0.));
#589=DIRECTION('',(-2.4320461239711E-16,1.,0.));
#590=DIRECTION('',(1.,0.,0.));
#591=DIRECTION('',(-2.61958169557296E-16,-1.,0.));
#592=DIRECTION('',(1.,0.,0.));
#593=DIRECTION('',(0.,-1.,0.));
#594=DIRECTION('',(1.0897852775875E-16,-1.,0.));
#595=DIRECTION('',(1.,1.0897852775875E-16,0.));
#596=DIRECTION('',(1.0897852775875E-16,-1.,0.));
#597=DIRECTION('',(1.,1.0897852775875E-16,0.));
#598=DIRECTION('',(-1.,-1.0897852775875E-16,0.));
#599=DIRECTION('',(0.,0.,-1.));
#600=DIRECTION('',(0.,0.,-1.));
#601=DIRECTION('',(-1.,-1.0897852775875E-16,0.));
#602=DIRECTION('',(0.,0.,-1.));
#603=DIRECTION('',(0.,0.,-1.));
#604=DIRECTION('',(-1.,0.,0.));
#605=DIRECTION('',(0.,0.,1.));
#606=DIRECTION('',(0.,1.,0.));
#607=DIRECTION('',(0.,0.,-1.));
#608=DIRECTION('',(0.,1.,0.));
#609=DIRECTION('',(1.0897852775875E-16,-1.,0.));
#610=DIRECTION('',(1.,1.0897852775875E-16,0.));
#611=DIRECTION('',(-1.,-1.0897852775875E-16,0.));
#612=DIRECTION('',(0.,0.,-1.));
#613=DIRECTION('',(1.,-2.61958169557296E-16,0.));
#614=DIRECTION('',(2.61958169557296E-16,1.,0.));
#615=DIRECTION('',(1.,-2.61958169557296E-16,0.));
#616=DIRECTION('',(2.61958169557296E-16,1.,0.));
#617=DIRECTION('',(-2.61958169557296E-16,-1.,0.));
#618=DIRECTION('',(0.,0.,-1.));
#619=DIRECTION('',(0.,0.,-1.));
#620=DIRECTION('',(-2.61958169557296E-16,-1.,0.));
#621=DIRECTION('',(0.,0.,-1.));
#622=DIRECTION('',(0.,0.,-1.));
#623=DIRECTION('',(0.,1.,0.));
#624=DIRECTION('',(0.,0.,1.));
#625=DIRECTION('',(1.,0.,0.));
#626=DIRECTION('',(0.,0.,-1.));
#627=DIRECTION('',(1.,0.,0.));
#628=DIRECTION('',(0.,0.,-1.));
#629=DIRECTION('',(1.,0.,0.));
#630=DIRECTION('',(0.,0.,-1.));
#631=DIRECTION('',(0.,-1.,0.));
#632=DIRECTION('',(0.,0.,-1.));
#633=DIRECTION('',(0.,0.,-1.));
#634=DIRECTION('',(0.,-1.,0.));
#635=DIRECTION('',(0.,0.,-1.));
#636=DIRECTION('',(0.,1.,0.));
#637=DIRECTION('',(0.,0.,1.));
#638=DIRECTION('',(0.,1.,0.));
#639=DIRECTION('',(0.,0.,1.));
#640=DIRECTION('',(1.,0.,0.));
#641=DIRECTION('',(0.,0.,-1.));
#642=DIRECTION('',(1.,0.,0.));
#643=DIRECTION('',(0.,0.,-1.));
#644=DIRECTION('',(-1.,-2.4320461239711E-16,0.));
#645=DIRECTION('',(2.4320461239711E-16,-1.,0.));
#646=DIRECTION('',(-1.,-2.4320461239711E-16,0.));
#647=DIRECTION('',(2.4320461239711E-16,-1.,0.));
#648=DIRECTION('',(-2.4320461239711E-16,1.,0.));
#649=DIRECTION('',(0.,0.,-1.));
#650=DIRECTION('',(-2.4320461239711E-16,1.,0.));
#651=DIRECTION('',(0.,0.,-1.));
#652=DIRECTION('',(0.,0.,1.));
#653=DIRECTION('',(1.,0.,0.));
#654=DIRECTION('',(0.,1.,0.));
#655=DIRECTION('',(0.,0.,1.));
#656=DIRECTION('',(1.,0.,0.));
#657=DIRECTION('',(0.,1.,0.));
#658=DIRECTION('',(0.,0.,1.));
#659=DIRECTION('',(1.,0.,0.));
#660=DIRECTION('',(0.,0.,1.));
#661=DIRECTION('',(1.,0.,0.));
#662=DIRECTION('',(0.,0.,1.));
#663=DIRECTION('',(1.,0.,0.));
#664=DIRECTION('',(-1.,0.,0.));
#665=DIRECTION('',(-1.,0.,0.));
#666=DIRECTION('',(0.,1.,0.));
#667=DIRECTION('',(0.,-1.,0.));
#668=DIRECTION('',(0.,0.,-1.));
#669=DIRECTION('',(0.,0.,-1.));
#670=DIRECTION('',(-1.,0.,0.));
#671=DIRECTION('',(-1.,0.,0.));
#672=DIRECTION('',(0.,0.,1.));
#673=DIRECTION('',(1.,0.,0.));
#674=DIRECTION('',(0.,0.,-1.));
#675=DIRECTION('',(0.,0.,-1.));
#676=DIRECTION('',(0.,1.,0.));
#677=DIRECTION('',(0.,-1.,0.));
#678=DIRECTION('',(0.,0.,-1.));
#679=DIRECTION('',(-1.,0.,0.));
#680=DIRECTION('',(0.,0.,1.));
#681=DIRECTION('',(1.,0.,0.));
#682=DIRECTION('',(1.,0.,0.));
#683=DIRECTION('',(0.,0.,-1.));
#684=DIRECTION('',(1.,0.,0.));
#685=DIRECTION('',(0.,0.,-1.));
#686=DIRECTION('',(1.,0.,0.));
#687=DIRECTION('',(0.,0.,-1.));
#688=DIRECTION('',(0.,-1.,0.));
#689=DIRECTION('',(1.,0.,0.));
#690=DIRECTION('',(0.,0.,-1.));
#691=DIRECTION('',(0.,-1.,0.));
#692=DIRECTION('',(0.,0.,1.));
#693=DIRECTION('',(1.,0.,0.));
#694=DIRECTION('',(0.,1.,0.));
#695=DIRECTION('',(0.,0.,1.));
#696=CARTESIAN_POINT('',(0.,0.,0.));
#697=CARTESIAN_POINT('',(0.0123115197420121,-0.0270960621237755,0.0127));
#698=CARTESIAN_POINT('',(0.255159019742012,0.00712438005208968,0.0127));
#699=CARTESIAN_POINT('',(0.255159019742012,-0.0518885590136051,0.0127));
#700=CARTESIAN_POINT('',(0.255159019742012,-0.0988298479169607,0.0127));
#701=CARTESIAN_POINT('',(0.012311519742012,-0.0988298479169607,0.0127));
#702=CARTESIAN_POINT('',(0.255609542131424,-0.0988298479169607,0.0127));
#703=CARTESIAN_POINT('',(0.255609542131424,-0.10291492395848,0.0127));
#704=CARTESIAN_POINT('',(0.255609542131424,-0.107,0.0127));
#705=CARTESIAN_POINT('',(0.0123115197420121,-0.107,0.0127));
#706=CARTESIAN_POINT('',(0.267,-0.107,0.0127));
#707=CARTESIAN_POINT('',(0.267,0.00712438005208969,0.0127));
#708=CARTESIAN_POINT('',(0.267,-0.0518885590136051,0.0127));
#709=CARTESIAN_POINT('',(0.261159019742012,-0.0518885590136051,0.0127));
#710=CARTESIAN_POINT('',(0.0123115197420121,-0.0270960621237755,0.0127));
#711=CARTESIAN_POINT('',(-0.230535980257988,-0.10291492395848,0.0127));
#712=CARTESIAN_POINT('',(-0.230535980257988,-0.0988298479169607,0.0127));
#713=CARTESIAN_POINT('',(-0.230535980257988,-0.107,0.0127));
#714=CARTESIAN_POINT('',(-0.230535980257988,0.00712438005208968,0.0127));
#715=CARTESIAN_POINT('',(-0.230535980257988,-0.0518885590136052,0.0127));
#716=CARTESIAN_POINT('',(-0.236535980257988,-0.0518885590136052,0.0127));
#717=CARTESIAN_POINT('',(-0.242376960515976,-0.0518885590136052,0.0127));
#718=CARTESIAN_POINT('',(-0.242376960515976,0.00712438005208964,0.0127));
#719=CARTESIAN_POINT('',(-0.242376960515976,-0.107,0.0127));
#720=CARTESIAN_POINT('',(0.0123115197420121,-0.107,0.0127));
#721=CARTESIAN_POINT('',(0.0123115197420121,-0.0270960621237755,0.0127));
#722=CARTESIAN_POINT('',(0.261159019742012,0.0518885590136051,0.0127));
#723=CARTESIAN_POINT('',(0.267,0.0518885590136051,0.0127));
#724=CARTESIAN_POINT('',(0.255159019742012,0.0518885590136051,0.0127));
#725=CARTESIAN_POINT('',(0.267,0.00712438005208969,0.0127));
#726=CARTESIAN_POINT('',(0.267,0.121248760104179,0.0127));
#727=CARTESIAN_POINT('',(0.0123115197420121,0.121248760104179,0.0127));
#728=CARTESIAN_POINT('',(-0.242376960515976,0.121248760104179,0.0127));
#729=CARTESIAN_POINT('',(-0.242376960515976,0.00712438005208964,0.0127));
#730=CARTESIAN_POINT('',(-0.242376960515976,0.0518885590136051,0.0127));
#731=CARTESIAN_POINT('',(-0.236535980257988,0.0518885590136051,0.0127));
#732=CARTESIAN_POINT('',(-0.230535980257988,0.0518885590136051,0.0127));
#733=CARTESIAN_POINT('',(-0.230535980257988,0.00712438005208968,0.0127));
#734=CARTESIAN_POINT('',(-0.230535980257988,0.11307860802114,0.0127));
#735=CARTESIAN_POINT('',(0.0123115197420121,0.11307860802114,0.0127));
#736=CARTESIAN_POINT('',(0.255159019742012,0.11307860802114,0.0127));
#737=CARTESIAN_POINT('',(0.255159019742012,0.00712438005208968,0.0127));
#738=CARTESIAN_POINT('',(0.0123115197420121,-0.107,0.0127));
#739=CARTESIAN_POINT('',(-0.00539045786857607,-0.107,0.02335));
#740=CARTESIAN_POINT('',(0.00222954213142393,-0.107,0.02335));
#741=CARTESIAN_POINT('',(0.0123115197420121,-0.107,0.));
#742=CARTESIAN_POINT('',(0.267,-0.107,0.));
#743=CARTESIAN_POINT('',(-0.242376960515976,-0.107,0.));
#744=CARTESIAN_POINT('',(0.267,-0.107,0.0127));
#745=CARTESIAN_POINT('',(0.255609542131424,-0.107,0.0467));
#746=CARTESIAN_POINT('',(0.255609542131424,-0.107,0.0467));
#747=CARTESIAN_POINT('',(0.0123115197420121,-0.107,0.0467));
#748=CARTESIAN_POINT('',(-0.230535980257988,-0.107,0.0467));
#749=CARTESIAN_POINT('',(-0.230535980257988,-0.107,0.0467));
#750=CARTESIAN_POINT('',(-0.242376960515976,-0.107,0.0127));
#751=CARTESIAN_POINT('',(0.267,0.00712438005208969,0.0127));
#752=CARTESIAN_POINT('',(0.267,0.00712438005208969,0.));
#753=CARTESIAN_POINT('',(0.267,0.121248760104179,0.));
#754=CARTESIAN_POINT('',(0.267,0.121248760104179,0.0127));
#755=CARTESIAN_POINT('',(0.267,0.00712438005208969,0.0127));
#756=CARTESIAN_POINT('',(0.0123115197420121,0.121248760104179,0.0127));
#757=CARTESIAN_POINT('',(0.0123115197420121,0.121248760104179,0.));
#758=CARTESIAN_POINT('',(-0.242376960515976,0.121248760104179,0.));
#759=CARTESIAN_POINT('',(-0.242376960515976,0.121248760104179,0.0127));
#760=CARTESIAN_POINT('',(-0.230535980257988,0.00712438005208968,0.0127));
#761=CARTESIAN_POINT('',(-0.230535980257988,0.,0.0302));
#762=CARTESIAN_POINT('',(-0.230535980257988,0.006731,0.0302));
#763=CARTESIAN_POINT('',(-0.230535980257988,0.00712438005208968,0.));
#764=CARTESIAN_POINT('',(-0.230535980257988,0.11307860802114,0.));
#765=CARTESIAN_POINT('',(-0.230535980257988,-0.0988298479169607,0.));
#766=CARTESIAN_POINT('',(-0.230535980257988,0.11307860802114,0.0127));
#767=CARTESIAN_POINT('',(-0.230535980257988,0.0518885590136051,0.0477));
#768=CARTESIAN_POINT('',(-0.230535980257988,0.0518885590136051,0.0477));
#769=CARTESIAN_POINT('',(-0.230535980257988,0.00712438005208968,0.0477));
#770=CARTESIAN_POINT('',(-0.230535980257988,-0.0518885590136052,0.0477));
#771=CARTESIAN_POINT('',(-0.230535980257988,-0.0518885590136052,0.0477));
#772=CARTESIAN_POINT('',(-0.230535980257988,-0.0988298479169607,0.0127));
#773=CARTESIAN_POINT('',(0.0123115197420121,0.11307860802114,0.0127));
#774=CARTESIAN_POINT('',(0.0123115197420121,0.11307860802114,0.));
#775=CARTESIAN_POINT('',(0.255159019742012,0.11307860802114,0.));
#776=CARTESIAN_POINT('',(0.255159019742012,0.11307860802114,0.0127));
#777=CARTESIAN_POINT('',(0.255159019742012,0.00712438005208968,0.0127));
#778=CARTESIAN_POINT('',(0.255159019742012,0.,0.0302));
#779=CARTESIAN_POINT('',(0.255159019742012,0.,0.023469));
#780=CARTESIAN_POINT('',(0.255159019742012,0.00712438005208968,0.));
#781=CARTESIAN_POINT('',(0.255159019742012,-0.0988298479169607,0.));
#782=CARTESIAN_POINT('',(0.255159019742012,-0.0988298479169607,0.0127));
#783=CARTESIAN_POINT('',(0.255159019742012,-0.0518885590136051,0.0477));
#784=CARTESIAN_POINT('',(0.255159019742012,-0.0518885590136051,0.0477));
#785=CARTESIAN_POINT('',(0.255159019742012,0.00712438005208968,0.0477));
#786=CARTESIAN_POINT('',(0.255159019742012,0.0518885590136051,0.0477));
#787=CARTESIAN_POINT('',(0.255159019742012,0.0518885590136051,0.0477));
#788=CARTESIAN_POINT('',(0.012311519742012,-0.0988298479169607,0.0127));
#789=CARTESIAN_POINT('',(-0.00539045786857607,-0.0988298479169607,0.02335));
#790=CARTESIAN_POINT('',(-0.00539045786857607,-0.0988298479169607,0.03097));
#791=CARTESIAN_POINT('',(0.012311519742012,-0.0988298479169607,0.));
#792=CARTESIAN_POINT('',(-0.230535980257988,-0.0988298479169607,0.0467));
#793=CARTESIAN_POINT('',(-0.230535980257988,-0.0988298479169607,0.0467));
#794=CARTESIAN_POINT('',(0.012311519742012,-0.0988298479169607,0.0467));
#795=CARTESIAN_POINT('',(0.255609542131424,-0.0988298479169607,0.0467));
#796=CARTESIAN_POINT('',(0.255609542131424,-0.0988298479169607,0.0467));
#797=CARTESIAN_POINT('',(-0.242376960515976,0.00712438005208964,0.0127));
#798=CARTESIAN_POINT('',(-0.242376960515976,0.,0.0302));
#799=CARTESIAN_POINT('',(-0.242376960515976,-0.006731,0.0302));
#800=CARTESIAN_POINT('',(-0.242376960515976,0.00712438005208964,0.));
#801=CARTESIAN_POINT('',(-0.242376960515976,-0.0518885590136052,0.0477));
#802=CARTESIAN_POINT('',(-0.242376960515976,-0.0518885590136052,0.0477));
#803=CARTESIAN_POINT('',(-0.242376960515976,0.00712438005208964,0.0477));
#804=CARTESIAN_POINT('',(-0.242376960515976,0.0518885590136051,0.0477));
#805=CARTESIAN_POINT('',(-0.242376960515976,0.0518885590136051,0.0477));
#806=CARTESIAN_POINT('',(0.0123115197420121,-0.0270960621237755,0.));
#807=CARTESIAN_POINT('',(-0.236535980257988,-0.0518885590136052,0.0477));
#808=CARTESIAN_POINT('',(-0.236535980257988,-0.0518885590136052,0.0477));
#809=CARTESIAN_POINT('',(-0.236535980257988,0.0518885590136051,0.0477));
#810=CARTESIAN_POINT('',(-0.236535980257988,0.0518885590136051,0.0477));
#811=CARTESIAN_POINT('',(0.0255401134490967,0.011743,0.0477));
#812=CARTESIAN_POINT('',(0.0255401134490967,0.011743,0.0127));
#813=CARTESIAN_POINT('',(0.261159019742012,-0.0518885590136051,0.0127));
#814=CARTESIAN_POINT('',(0.267159019742012,-0.0518885590136051,0.0127));
#815=CARTESIAN_POINT('',(0.261159019742012,0.0518885590136051,0.0127));
#816=CARTESIAN_POINT('',(0.267159019742012,0.0518885590136051,0.0127));
#817=CARTESIAN_POINT('',(0.267159019742012,0.,0.0127));
#818=CARTESIAN_POINT('',(0.261159019742012,-0.0518885590136051,0.0477));
#819=CARTESIAN_POINT('',(0.267159019742012,-0.0518885590136051,0.0477));
#820=CARTESIAN_POINT('',(0.267159019742012,-0.0518885590136051,0.0477));
#821=CARTESIAN_POINT('',(0.261159019742012,-0.0518885590136051,0.0477));
#822=CARTESIAN_POINT('',(0.267159019742012,0.,0.0477));
#823=CARTESIAN_POINT('',(0.267159019742012,0.,0.0302));
#824=CARTESIAN_POINT('',(0.267159019742012,0.,0.023469));
#825=CARTESIAN_POINT('',(0.267159019742012,0.0518885590136051,0.0477));
#826=CARTESIAN_POINT('',(0.267159019742012,0.0518885590136051,0.0477));
#827=CARTESIAN_POINT('',(0.267159019742012,0.,0.0477));
#828=CARTESIAN_POINT('',(0.261159019742012,0.0518885590136051,0.0477));
#829=CARTESIAN_POINT('',(0.261159019742012,0.0518885590136051,0.0477));
#830=CARTESIAN_POINT('',(0.0255401134490967,0.011743,0.0477));
#831=CARTESIAN_POINT('',(-0.356840980257988,0.,0.0302));
#832=CARTESIAN_POINT('',(-0.356840980257988,0.,0.0302));
#833=CARTESIAN_POINT('',(-0.230535980257988,-0.10291492395848,0.0467));
#834=CARTESIAN_POINT('',(-0.230535980257988,-0.10291492395848,0.0467));
#835=CARTESIAN_POINT('',(0.255609542131424,-0.10291492395848,0.0467));
#836=CARTESIAN_POINT('',(0.255609542131424,-0.10291492395848,0.0467));
#837=CARTESIAN_POINT('',(0.0123115197420121,-0.0794442795068026,0.0467));
#838=CARTESIAN_POINT('',(-0.00539045786857607,-0.221829847916961,0.02335));
#839=MECHANICAL_DESIGN_GEOMETRIC_PRESENTATION_REPRESENTATION('',(#523),
#840);
#840=(
GEOMETRIC_REPRESENTATION_CONTEXT(3)
GLOBAL_UNCERTAINTY_ASSIGNED_CONTEXT((#841))
GLOBAL_UNIT_ASSIGNED_CONTEXT((#844,#843,#842))
REPRESENTATION_CONTEXT('Part 1','TOP_LEVEL_ASSEMBLY_PART')
);
#841=UNCERTAINTY_MEASURE_WITH_UNIT(LENGTH_MEASURE(1.E-8),#844,
'DISTANCE_ACCURACY_VALUE','Maximum Tolerance applied to model');
#842=(
NAMED_UNIT(*)
SI_UNIT($,.STERADIAN.)
SOLID_ANGLE_UNIT()
);
#843=(
NAMED_UNIT(*)
PLANE_ANGLE_UNIT()
SI_UNIT($,.RADIAN.)
);
#844=(
LENGTH_UNIT()
NAMED_UNIT(*)
SI_UNIT($,.METRE.)
);
#845=PRODUCT_DEFINITION_SHAPE('','',#846);
#846=PRODUCT_DEFINITION('','',#848,#847);
#847=PRODUCT_DEFINITION_CONTEXT('',#854,'design');
#848=PRODUCT_DEFINITION_FORMATION_WITH_SPECIFIED_SOURCE('','',#850,
 .NOT_KNOWN.);
#849=PRODUCT_RELATED_PRODUCT_CATEGORY('','',(#850));
#850=PRODUCT('Part 1','Part 1','Part 1',(#852));
#851=PRODUCT_CATEGORY('','');
#852=PRODUCT_CONTEXT('',#854,'mechanical');
#853=APPLICATION_PROTOCOL_DEFINITION('international standard',
'ap242_managed_model_based_3d_engineering',2020,#854);
#854=APPLICATION_CONTEXT('managed model based 3d engineering');
ENDSEC;
END-ISO-10303-21;
