ISO-10303-21;
HEADER;
/* Generated by software containing ST-Developer
 * from STEP Tools, Inc. (www.steptools.com) 
 */
/* OPTION: using custom renumber hook */

FILE_DESCRIPTION(
/* description */ ('STEP AP242 Edition 2',
'CAx-IF Rec.Pracs.---Representation and Presentation of Product Manufa
cturing Information (PMI)---4.0---2014-10-13',
'CAx-IF Rec.Pracs.---3D Tessellated Geometry---0.4---2014-09-14','2;1',
'CAx-IF Rec.Pracs.---User Defined Attributes---1.5---2016-08-15'),
/* implementation_level */ '2;1');

FILE_NAME(
/* name */ 'Part Studio 1',
/* time_stamp */ '2026-08-30T22:21:38Z',
/* author */ (''),
/* organization */ (''),
/* preprocessor_version */ 'ST-DEVELOPER v20',
/* originating_system */ 'ONSHAPE BY PTC INC, 1.220',
/* authorisation */ '  ');

FILE_SCHEMA (('AP242_MANAGED_MODEL_BASED_3D_ENGINEERING_MIM_LF { 1 0 10303 442 3 1 4 }'));
ENDSEC;

DATA;
#10=SHAPE_REPRESENTATION_RELATIONSHIP('','',#735,#11);
#11=ADVANCED_BREP_SHAPE_REPRESENTATION('',(#733),#1162);
#12=CYLINDRICAL_SURFACE('',#768,0.006731);
#13=CYLINDRICAL_SURFACE('',#769,0.006731);
#14=CYLINDRICAL_SURFACE('',#773,0.00762);
#15=CYLINDRICAL_SURFACE('',#780,0.00762);
#16=CYLINDRICAL_SURFACE('',#781,0.00762);
#17=CIRCLE('',#742,0.00762);
#18=CIRCLE('',#744,0.00762);
#19=CIRCLE('',#747,0.00762);
#20=CIRCLE('',#748,0.006731);
#21=CIRCLE('',#751,0.00762);
#22=CIRCLE('',#752,0.006731);
#23=CIRCLE('',#754,0.00762);
#24=CIRCLE('',#756,0.00762);
#25=CIRCLE('',#757,0.006731);
#26=CIRCLE('',#765,0.006731);
#27=ORIENTED_EDGE('',*,*,#221,.F.);
#28=ORIENTED_EDGE('',*,*,#222,.F.);
#29=ORIENTED_EDGE('',*,*,#223,.T.);
#30=ORIENTED_EDGE('',*,*,#224,.T.);
#31=ORIENTED_EDGE('',*,*,#225,.T.);
#32=ORIENTED_EDGE('',*,*,#226,.T.);
#33=ORIENTED_EDGE('',*,*,#227,.T.);
#34=ORIENTED_EDGE('',*,*,#228,.F.);
#35=ORIENTED_EDGE('',*,*,#229,.T.);
#36=ORIENTED_EDGE('',*,*,#230,.T.);
#37=ORIENTED_EDGE('',*,*,#231,.T.);
#38=ORIENTED_EDGE('',*,*,#232,.F.);
#39=ORIENTED_EDGE('',*,*,#233,.T.);
#40=ORIENTED_EDGE('',*,*,#234,.T.);
#41=ORIENTED_EDGE('',*,*,#235,.F.);
#42=ORIENTED_EDGE('',*,*,#236,.F.);
#43=ORIENTED_EDGE('',*,*,#237,.F.);
#44=ORIENTED_EDGE('',*,*,#238,.F.);
#45=ORIENTED_EDGE('',*,*,#239,.F.);
#46=ORIENTED_EDGE('',*,*,#240,.F.);
#47=ORIENTED_EDGE('',*,*,#241,.T.);
#48=ORIENTED_EDGE('',*,*,#242,.T.);
#49=ORIENTED_EDGE('',*,*,#243,.F.);
#50=ORIENTED_EDGE('',*,*,#244,.T.);
#51=ORIENTED_EDGE('',*,*,#245,.F.);
#52=ORIENTED_EDGE('',*,*,#246,.T.);
#53=ORIENTED_EDGE('',*,*,#247,.T.);
#54=ORIENTED_EDGE('',*,*,#248,.F.);
#55=ORIENTED_EDGE('',*,*,#223,.F.);
#56=ORIENTED_EDGE('',*,*,#249,.F.);
#57=ORIENTED_EDGE('',*,*,#232,.T.);
#58=ORIENTED_EDGE('',*,*,#250,.F.);
#59=ORIENTED_EDGE('',*,*,#251,.T.);
#60=ORIENTED_EDGE('',*,*,#252,.T.);
#61=ORIENTED_EDGE('',*,*,#239,.T.);
#62=ORIENTED_EDGE('',*,*,#253,.T.);
#63=ORIENTED_EDGE('',*,*,#254,.F.);
#64=ORIENTED_EDGE('',*,*,#222,.T.);
#65=ORIENTED_EDGE('',*,*,#255,.F.);
#66=ORIENTED_EDGE('',*,*,#256,.T.);
#67=ORIENTED_EDGE('',*,*,#257,.T.);
#68=ORIENTED_EDGE('',*,*,#258,.T.);
#69=ORIENTED_EDGE('',*,*,#259,.F.);
#70=ORIENTED_EDGE('',*,*,#241,.F.);
#71=ORIENTED_EDGE('',*,*,#260,.F.);
#72=ORIENTED_EDGE('',*,*,#233,.F.);
#73=ORIENTED_EDGE('',*,*,#249,.T.);
#74=ORIENTED_EDGE('',*,*,#261,.T.);
#75=ORIENTED_EDGE('',*,*,#262,.F.);
#76=ORIENTED_EDGE('',*,*,#242,.F.);
#77=ORIENTED_EDGE('',*,*,#259,.T.);
#78=ORIENTED_EDGE('',*,*,#263,.F.);
#79=ORIENTED_EDGE('',*,*,#264,.F.);
#80=ORIENTED_EDGE('',*,*,#265,.F.);
#81=ORIENTED_EDGE('',*,*,#266,.F.);
#82=ORIENTED_EDGE('',*,*,#245,.T.);
#83=ORIENTED_EDGE('',*,*,#267,.F.);
#84=ORIENTED_EDGE('',*,*,#268,.T.);
#85=ORIENTED_EDGE('',*,*,#269,.T.);
#86=ORIENTED_EDGE('',*,*,#236,.T.);
#87=ORIENTED_EDGE('',*,*,#270,.T.);
#88=ORIENTED_EDGE('',*,*,#226,.F.);
#89=ORIENTED_EDGE('',*,*,#271,.F.);
#90=ORIENTED_EDGE('',*,*,#272,.F.);
#91=ORIENTED_EDGE('',*,*,#273,.T.);
#92=ORIENTED_EDGE('',*,*,#274,.T.);
#93=ORIENTED_EDGE('',*,*,#275,.F.);
#94=ORIENTED_EDGE('',*,*,#246,.F.);
#95=ORIENTED_EDGE('',*,*,#266,.T.);
#96=ORIENTED_EDGE('',*,*,#276,.T.);
#97=ORIENTED_EDGE('',*,*,#277,.T.);
#98=ORIENTED_EDGE('',*,*,#278,.T.);
#99=ORIENTED_EDGE('',*,*,#279,.F.);
#100=ORIENTED_EDGE('',*,*,#280,.T.);
#101=ORIENTED_EDGE('',*,*,#281,.T.);
#102=ORIENTED_EDGE('',*,*,#228,.T.);
#103=ORIENTED_EDGE('',*,*,#282,.F.);
#104=ORIENTED_EDGE('',*,*,#229,.F.);
#105=ORIENTED_EDGE('',*,*,#283,.F.);
#106=ORIENTED_EDGE('',*,*,#284,.F.);
#107=ORIENTED_EDGE('',*,*,#285,.T.);
#108=ORIENTED_EDGE('',*,*,#247,.F.);
#109=ORIENTED_EDGE('',*,*,#275,.T.);
#110=ORIENTED_EDGE('',*,*,#286,.F.);
#111=ORIENTED_EDGE('',*,*,#227,.F.);
#112=ORIENTED_EDGE('',*,*,#270,.F.);
#113=ORIENTED_EDGE('',*,*,#287,.F.);
#114=ORIENTED_EDGE('',*,*,#288,.T.);
#115=ORIENTED_EDGE('',*,*,#289,.T.);
#116=ORIENTED_EDGE('',*,*,#230,.F.);
#117=ORIENTED_EDGE('',*,*,#282,.T.);
#118=ORIENTED_EDGE('',*,*,#290,.F.);
#119=ORIENTED_EDGE('',*,*,#291,.F.);
#120=ORIENTED_EDGE('',*,*,#224,.F.);
#121=ORIENTED_EDGE('',*,*,#253,.F.);
#122=ORIENTED_EDGE('',*,*,#238,.T.);
#123=ORIENTED_EDGE('',*,*,#292,.F.);
#124=ORIENTED_EDGE('',*,*,#293,.T.);
#125=ORIENTED_EDGE('',*,*,#294,.T.);
#126=ORIENTED_EDGE('',*,*,#243,.T.);
#127=ORIENTED_EDGE('',*,*,#262,.T.);
#128=ORIENTED_EDGE('',*,*,#295,.F.);
#129=ORIENTED_EDGE('',*,*,#296,.F.);
#130=ORIENTED_EDGE('',*,*,#297,.F.);
#131=ORIENTED_EDGE('',*,*,#298,.T.);
#132=ORIENTED_EDGE('',*,*,#258,.F.);
#133=ORIENTED_EDGE('',*,*,#299,.T.);
#134=ORIENTED_EDGE('',*,*,#278,.F.);
#135=ORIENTED_EDGE('',*,*,#274,.F.);
#136=ORIENTED_EDGE('',*,*,#265,.T.);
#137=ORIENTED_EDGE('',*,*,#300,.F.);
#138=ORIENTED_EDGE('',*,*,#295,.T.);
#139=ORIENTED_EDGE('',*,*,#261,.F.);
#140=ORIENTED_EDGE('',*,*,#237,.T.);
#141=ORIENTED_EDGE('',*,*,#269,.F.);
#142=ORIENTED_EDGE('',*,*,#301,.F.);
#143=ORIENTED_EDGE('',*,*,#292,.T.);
#144=ORIENTED_EDGE('',*,*,#244,.F.);
#145=ORIENTED_EDGE('',*,*,#294,.F.);
#146=ORIENTED_EDGE('',*,*,#302,.T.);
#147=ORIENTED_EDGE('',*,*,#267,.T.);
#148=ORIENTED_EDGE('',*,*,#293,.F.);
#149=ORIENTED_EDGE('',*,*,#301,.T.);
#150=ORIENTED_EDGE('',*,*,#268,.F.);
#151=ORIENTED_EDGE('',*,*,#302,.F.);
#152=ORIENTED_EDGE('',*,*,#303,.T.);
#153=ORIENTED_EDGE('',*,*,#260,.T.);
#154=ORIENTED_EDGE('',*,*,#304,.F.);
#155=ORIENTED_EDGE('',*,*,#305,.F.);
#156=ORIENTED_EDGE('',*,*,#303,.F.);
#157=ORIENTED_EDGE('',*,*,#306,.F.);
#158=ORIENTED_EDGE('',*,*,#307,.T.);
#159=ORIENTED_EDGE('',*,*,#283,.T.);
#160=ORIENTED_EDGE('',*,*,#234,.F.);
#161=ORIENTED_EDGE('',*,*,#308,.F.);
#162=ORIENTED_EDGE('',*,*,#305,.T.);
#163=ORIENTED_EDGE('',*,*,#309,.F.);
#164=ORIENTED_EDGE('',*,*,#310,.F.);
#165=ORIENTED_EDGE('',*,*,#306,.T.);
#166=ORIENTED_EDGE('',*,*,#304,.T.);
#167=ORIENTED_EDGE('',*,*,#240,.T.);
#168=ORIENTED_EDGE('',*,*,#285,.F.);
#169=ORIENTED_EDGE('',*,*,#311,.F.);
#170=ORIENTED_EDGE('',*,*,#309,.T.);
#171=ORIENTED_EDGE('',*,*,#284,.T.);
#172=ORIENTED_EDGE('',*,*,#307,.F.);
#173=ORIENTED_EDGE('',*,*,#310,.T.);
#174=ORIENTED_EDGE('',*,*,#311,.T.);
#175=ORIENTED_EDGE('',*,*,#308,.T.);
#176=ORIENTED_EDGE('',*,*,#277,.F.);
#177=ORIENTED_EDGE('',*,*,#264,.T.);
#178=ORIENTED_EDGE('',*,*,#291,.T.);
#179=ORIENTED_EDGE('',*,*,#235,.T.);
#180=ORIENTED_EDGE('',*,*,#252,.F.);
#181=ORIENTED_EDGE('',*,*,#312,.F.);
#182=ORIENTED_EDGE('',*,*,#287,.T.);
#183=ORIENTED_EDGE('',*,*,#231,.F.);
#184=ORIENTED_EDGE('',*,*,#289,.F.);
#185=ORIENTED_EDGE('',*,*,#313,.T.);
#186=ORIENTED_EDGE('',*,*,#250,.T.);
#187=ORIENTED_EDGE('',*,*,#288,.F.);
#188=ORIENTED_EDGE('',*,*,#312,.T.);
#189=ORIENTED_EDGE('',*,*,#251,.F.);
#190=ORIENTED_EDGE('',*,*,#313,.F.);
#191=ORIENTED_EDGE('',*,*,#248,.T.);
#192=ORIENTED_EDGE('',*,*,#286,.T.);
#193=ORIENTED_EDGE('',*,*,#225,.F.);
#194=ORIENTED_EDGE('',*,*,#298,.F.);
#195=ORIENTED_EDGE('',*,*,#314,.T.);
#196=ORIENTED_EDGE('',*,*,#271,.T.);
#197=ORIENTED_EDGE('',*,*,#300,.T.);
#198=ORIENTED_EDGE('',*,*,#273,.F.);
#199=ORIENTED_EDGE('',*,*,#315,.F.);
#200=ORIENTED_EDGE('',*,*,#296,.T.);
#201=ORIENTED_EDGE('',*,*,#314,.F.);
#202=ORIENTED_EDGE('',*,*,#297,.T.);
#203=ORIENTED_EDGE('',*,*,#315,.T.);
#204=ORIENTED_EDGE('',*,*,#272,.T.);
#205=ORIENTED_EDGE('',*,*,#221,.T.);
#206=ORIENTED_EDGE('',*,*,#281,.F.);
#207=ORIENTED_EDGE('',*,*,#316,.F.);
#208=ORIENTED_EDGE('',*,*,#255,.T.);
#209=ORIENTED_EDGE('',*,*,#299,.F.);
#210=ORIENTED_EDGE('',*,*,#257,.F.);
#211=ORIENTED_EDGE('',*,*,#317,.T.);
#212=ORIENTED_EDGE('',*,*,#279,.T.);
#213=ORIENTED_EDGE('',*,*,#256,.F.);
#214=ORIENTED_EDGE('',*,*,#316,.T.);
#215=ORIENTED_EDGE('',*,*,#280,.F.);
#216=ORIENTED_EDGE('',*,*,#317,.F.);
#217=ORIENTED_EDGE('',*,*,#263,.T.);
#218=ORIENTED_EDGE('',*,*,#290,.T.);
#219=ORIENTED_EDGE('',*,*,#254,.T.);
#220=ORIENTED_EDGE('',*,*,#276,.F.);
#221=EDGE_CURVE('',#318,#319,#385,.T.);
#222=EDGE_CURVE('',#320,#318,#386,.T.);
#223=EDGE_CURVE('',#320,#321,#387,.T.);
#224=EDGE_CURVE('',#321,#322,#388,.T.);
#225=EDGE_CURVE('',#322,#323,#389,.T.);
#226=EDGE_CURVE('',#323,#324,#390,.T.);
#227=EDGE_CURVE('',#324,#325,#391,.T.);
#228=EDGE_CURVE('',#319,#325,#392,.T.);
#229=EDGE_CURVE('',#326,#327,#393,.T.);
#230=EDGE_CURVE('',#327,#328,#394,.T.);
#231=EDGE_CURVE('',#328,#329,#395,.T.);
#232=EDGE_CURVE('',#330,#329,#396,.T.);
#233=EDGE_CURVE('',#330,#331,#397,.T.);
#234=EDGE_CURVE('',#331,#326,#398,.T.);
#235=EDGE_CURVE('',#332,#333,#399,.T.);
#236=EDGE_CURVE('',#334,#332,#400,.T.);
#237=EDGE_CURVE('',#335,#334,#401,.T.);
#238=EDGE_CURVE('',#336,#335,#402,.T.);
#239=EDGE_CURVE('',#333,#336,#403,.T.);
#240=EDGE_CURVE('',#337,#338,#404,.T.);
#241=EDGE_CURVE('',#337,#339,#405,.T.);
#242=EDGE_CURVE('',#339,#340,#406,.T.);
#243=EDGE_CURVE('',#341,#340,#407,.T.);
#244=EDGE_CURVE('',#341,#342,#408,.T.);
#245=EDGE_CURVE('',#343,#342,#409,.T.);
#246=EDGE_CURVE('',#343,#344,#410,.T.);
#247=EDGE_CURVE('',#344,#338,#411,.T.);
#248=EDGE_CURVE('',#345,#345,#17,.T.);
#249=EDGE_CURVE('',#330,#320,#412,.T.);
#250=EDGE_CURVE('',#346,#329,#413,.T.);
#251=EDGE_CURVE('',#346,#347,#414,.T.);
#252=EDGE_CURVE('',#347,#333,#415,.T.);
#253=EDGE_CURVE('',#336,#321,#416,.T.);
#254=EDGE_CURVE('',#348,#348,#18,.T.);
#255=EDGE_CURVE('',#349,#318,#417,.T.);
#256=EDGE_CURVE('',#349,#350,#418,.T.);
#257=EDGE_CURVE('',#350,#351,#419,.T.);
#258=EDGE_CURVE('',#351,#352,#420,.T.);
#259=EDGE_CURVE('',#339,#352,#421,.T.);
#260=EDGE_CURVE('',#331,#337,#422,.T.);
#261=EDGE_CURVE('',#352,#353,#423,.T.);
#262=EDGE_CURVE('',#340,#353,#424,.T.);
#263=EDGE_CURVE('',#354,#354,#19,.T.);
#264=EDGE_CURVE('',#355,#355,#20,.T.);
#265=EDGE_CURVE('',#356,#357,#425,.T.);
#266=EDGE_CURVE('',#343,#356,#426,.T.);
#267=EDGE_CURVE('',#358,#342,#427,.T.);
#268=EDGE_CURVE('',#358,#359,#428,.T.);
#269=EDGE_CURVE('',#359,#334,#429,.T.);
#270=EDGE_CURVE('',#332,#324,#430,.T.);
#271=EDGE_CURVE('',#360,#323,#431,.T.);
#272=EDGE_CURVE('',#361,#360,#432,.T.);
#273=EDGE_CURVE('',#361,#357,#433,.T.);
#274=EDGE_CURVE('',#356,#362,#434,.T.);
#275=EDGE_CURVE('',#344,#362,#435,.T.);
#276=EDGE_CURVE('',#363,#363,#21,.T.);
#277=EDGE_CURVE('',#364,#364,#22,.T.);
#278=EDGE_CURVE('',#362,#365,#436,.T.);
#279=EDGE_CURVE('',#366,#365,#437,.T.);
#280=EDGE_CURVE('',#366,#367,#438,.T.);
#281=EDGE_CURVE('',#367,#319,#439,.T.);
#282=EDGE_CURVE('',#327,#325,#440,.T.);
#283=EDGE_CURVE('',#368,#326,#441,.T.);
#284=EDGE_CURVE('',#369,#368,#442,.T.);
#285=EDGE_CURVE('',#369,#338,#443,.T.);
#286=EDGE_CURVE('',#370,#370,#23,.T.);
#287=EDGE_CURVE('',#371,#332,#444,.T.);
#288=EDGE_CURVE('',#371,#372,#445,.T.);
#289=EDGE_CURVE('',#372,#328,#446,.T.);
#290=EDGE_CURVE('',#373,#373,#24,.T.);
#291=EDGE_CURVE('',#374,#374,#25,.T.);
#292=EDGE_CURVE('',#375,#335,#447,.T.);
#293=EDGE_CURVE('',#375,#376,#448,.T.);
#294=EDGE_CURVE('',#376,#341,#449,.T.);
#295=EDGE_CURVE('',#377,#353,#450,.T.);
#296=EDGE_CURVE('',#378,#377,#451,.T.);
#297=EDGE_CURVE('',#379,#378,#452,.T.);
#298=EDGE_CURVE('',#379,#322,#453,.T.);
#299=EDGE_CURVE('',#351,#365,#454,.T.);
#300=EDGE_CURVE('',#377,#357,#455,.T.);
#301=EDGE_CURVE('',#375,#359,#456,.T.);
#302=EDGE_CURVE('',#376,#358,#457,.T.);
#303=EDGE_CURVE('',#380,#331,#458,.T.);
#304=EDGE_CURVE('',#381,#337,#459,.T.);
#305=EDGE_CURVE('',#380,#381,#460,.T.);
#306=EDGE_CURVE('',#382,#380,#461,.T.);
#307=EDGE_CURVE('',#382,#368,#462,.T.);
#308=EDGE_CURVE('',#383,#383,#26,.T.);
#309=EDGE_CURVE('',#384,#381,#463,.T.);
#310=EDGE_CURVE('',#382,#384,#464,.T.);
#311=EDGE_CURVE('',#384,#369,#465,.T.);
#312=EDGE_CURVE('',#371,#347,#466,.T.);
#313=EDGE_CURVE('',#372,#346,#467,.T.);
#314=EDGE_CURVE('',#379,#360,#468,.T.);
#315=EDGE_CURVE('',#378,#361,#469,.T.);
#316=EDGE_CURVE('',#349,#367,#470,.T.);
#317=EDGE_CURVE('',#350,#366,#471,.T.);
#318=VERTEX_POINT('',#964);
#319=VERTEX_POINT('',#965);
#320=VERTEX_POINT('',#967);
#321=VERTEX_POINT('',#969);
#322=VERTEX_POINT('',#971);
#323=VERTEX_POINT('',#973);
#324=VERTEX_POINT('',#975);
#325=VERTEX_POINT('',#977);
#326=VERTEX_POINT('',#981);
#327=VERTEX_POINT('',#982);
#328=VERTEX_POINT('',#984);
#329=VERTEX_POINT('',#986);
#330=VERTEX_POINT('',#988);
#331=VERTEX_POINT('',#990);
#332=VERTEX_POINT('',#994);
#333=VERTEX_POINT('',#995);
#334=VERTEX_POINT('',#997);
#335=VERTEX_POINT('',#999);
#336=VERTEX_POINT('',#1001);
#337=VERTEX_POINT('',#1005);
#338=VERTEX_POINT('',#1006);
#339=VERTEX_POINT('',#1008);
#340=VERTEX_POINT('',#1010);
#341=VERTEX_POINT('',#1012);
#342=VERTEX_POINT('',#1014);
#343=VERTEX_POINT('',#1016);
#344=VERTEX_POINT('',#1018);
#345=VERTEX_POINT('',#1022);
#346=VERTEX_POINT('',#1025);
#347=VERTEX_POINT('',#1027);
#348=VERTEX_POINT('',#1032);
#349=VERTEX_POINT('',#1034);
#350=VERTEX_POINT('',#1036);
#351=VERTEX_POINT('',#1038);
#352=VERTEX_POINT('',#1040);
#353=VERTEX_POINT('',#1045);
#354=VERTEX_POINT('',#1049);
#355=VERTEX_POINT('',#1051);
#356=VERTEX_POINT('',#1053);
#357=VERTEX_POINT('',#1054);
#358=VERTEX_POINT('',#1057);
#359=VERTEX_POINT('',#1059);
#360=VERTEX_POINT('',#1063);
#361=VERTEX_POINT('',#1065);
#362=VERTEX_POINT('',#1069);
#363=VERTEX_POINT('',#1073);
#364=VERTEX_POINT('',#1075);
#365=VERTEX_POINT('',#1077);
#366=VERTEX_POINT('',#1079);
#367=VERTEX_POINT('',#1081);
#368=VERTEX_POINT('',#1085);
#369=VERTEX_POINT('',#1087);
#370=VERTEX_POINT('',#1091);
#371=VERTEX_POINT('',#1093);
#372=VERTEX_POINT('',#1095);
#373=VERTEX_POINT('',#1099);
#374=VERTEX_POINT('',#1101);
#375=VERTEX_POINT('',#1103);
#376=VERTEX_POINT('',#1105);
#377=VERTEX_POINT('',#1108);
#378=VERTEX_POINT('',#1110);
#379=VERTEX_POINT('',#1112);
#380=VERTEX_POINT('',#1124);
#381=VERTEX_POINT('',#1126);
#382=VERTEX_POINT('',#1130);
#383=VERTEX_POINT('',#1134);
#384=VERTEX_POINT('',#1136);
#385=LINE('',#963,#472);
#386=LINE('',#966,#473);
#387=LINE('',#968,#474);
#388=LINE('',#970,#475);
#389=LINE('',#972,#476);
#390=LINE('',#974,#477);
#391=LINE('',#976,#478);
#392=LINE('',#978,#479);
#393=LINE('',#980,#480);
#394=LINE('',#983,#481);
#395=LINE('',#985,#482);
#396=LINE('',#987,#483);
#397=LINE('',#989,#484);
#398=LINE('',#991,#485);
#399=LINE('',#993,#486);
#400=LINE('',#996,#487);
#401=LINE('',#998,#488);
#402=LINE('',#1000,#489);
#403=LINE('',#1002,#490);
#404=LINE('',#1004,#491);
#405=LINE('',#1007,#492);
#406=LINE('',#1009,#493);
#407=LINE('',#1011,#494);
#408=LINE('',#1013,#495);
#409=LINE('',#1015,#496);
#410=LINE('',#1017,#497);
#411=LINE('',#1019,#498);
#412=LINE('',#1023,#499);
#413=LINE('',#1024,#500);
#414=LINE('',#1026,#501);
#415=LINE('',#1028,#502);
#416=LINE('',#1029,#503);
#417=LINE('',#1033,#504);
#418=LINE('',#1035,#505);
#419=LINE('',#1037,#506);
#420=LINE('',#1039,#507);
#421=LINE('',#1041,#508);
#422=LINE('',#1042,#509);
#423=LINE('',#1044,#510);
#424=LINE('',#1046,#511);
#425=LINE('',#1052,#512);
#426=LINE('',#1055,#513);
#427=LINE('',#1056,#514);
#428=LINE('',#1058,#515);
#429=LINE('',#1060,#516);
#430=LINE('',#1061,#517);
#431=LINE('',#1062,#518);
#432=LINE('',#1064,#519);
#433=LINE('',#1066,#520);
#434=LINE('',#1068,#521);
#435=LINE('',#1070,#522);
#436=LINE('',#1076,#523);
#437=LINE('',#1078,#524);
#438=LINE('',#1080,#525);
#439=LINE('',#1082,#526);
#440=LINE('',#1083,#527);
#441=LINE('',#1084,#528);
#442=LINE('',#1086,#529);
#443=LINE('',#1088,#530);
#444=LINE('',#1092,#531);
#445=LINE('',#1094,#532);
#446=LINE('',#1096,#533);
#447=LINE('',#1102,#534);
#448=LINE('',#1104,#535);
#449=LINE('',#1106,#536);
#450=LINE('',#1107,#537);
#451=LINE('',#1109,#538);
#452=LINE('',#1111,#539);
#453=LINE('',#1113,#540);
#454=LINE('',#1115,#541);
#455=LINE('',#1116,#542);
#456=LINE('',#1118,#543);
#457=LINE('',#1120,#544);
#458=LINE('',#1123,#545);
#459=LINE('',#1125,#546);
#460=LINE('',#1127,#547);
#461=LINE('',#1129,#548);
#462=LINE('',#1131,#549);
#463=LINE('',#1135,#550);
#464=LINE('',#1137,#551);
#465=LINE('',#1139,#552);
#466=LINE('',#1144,#553);
#467=LINE('',#1146,#554);
#468=LINE('',#1150,#555);
#469=LINE('',#1152,#556);
#470=LINE('',#1155,#557);
#471=LINE('',#1157,#558);
#472=VECTOR('',#786,1.);
#473=VECTOR('',#787,1.);
#474=VECTOR('',#788,1.);
#475=VECTOR('',#789,1.);
#476=VECTOR('',#790,1.);
#477=VECTOR('',#791,1.);
#478=VECTOR('',#792,1.);
#479=VECTOR('',#793,1.);
#480=VECTOR('',#796,1.);
#481=VECTOR('',#797,1.);
#482=VECTOR('',#798,1.);
#483=VECTOR('',#799,1.);
#484=VECTOR('',#800,1.);
#485=VECTOR('',#801,1.);
#486=VECTOR('',#804,1.);
#487=VECTOR('',#805,1.);
#488=VECTOR('',#806,1.);
#489=VECTOR('',#807,1.);
#490=VECTOR('',#808,1.);
#491=VECTOR('',#811,1.);
#492=VECTOR('',#812,1.);
#493=VECTOR('',#813,1.);
#494=VECTOR('',#814,1.);
#495=VECTOR('',#815,1.);
#496=VECTOR('',#816,1.);
#497=VECTOR('',#817,1.);
#498=VECTOR('',#818,1.);
#499=VECTOR('',#823,1.);
#500=VECTOR('',#824,1.);
#501=VECTOR('',#825,1.);
#502=VECTOR('',#826,1.);
#503=VECTOR('',#827,1.);
#504=VECTOR('',#832,1.);
#505=VECTOR('',#833,1.);
#506=VECTOR('',#834,1.);
#507=VECTOR('',#835,1.);
#508=VECTOR('',#836,1.);
#509=VECTOR('',#837,1.);
#510=VECTOR('',#840,1.);
#511=VECTOR('',#841,1.);
#512=VECTOR('',#848,1.);
#513=VECTOR('',#849,1.);
#514=VECTOR('',#850,1.);
#515=VECTOR('',#851,1.);
#516=VECTOR('',#852,1.);
#517=VECTOR('',#853,1.);
#518=VECTOR('',#854,1.);
#519=VECTOR('',#855,1.);
#520=VECTOR('',#856,1.);
#521=VECTOR('',#859,1.);
#522=VECTOR('',#860,1.);
#523=VECTOR('',#867,1.);
#524=VECTOR('',#868,1.);
#525=VECTOR('',#869,1.);
#526=VECTOR('',#870,1.);
#527=VECTOR('',#871,1.);
#528=VECTOR('',#872,1.);
#529=VECTOR('',#873,1.);
#530=VECTOR('',#874,1.);
#531=VECTOR('',#879,1.);
#532=VECTOR('',#880,1.);
#533=VECTOR('',#881,1.);
#534=VECTOR('',#888,1.);
#535=VECTOR('',#889,1.);
#536=VECTOR('',#890,1.);
#537=VECTOR('',#891,1.);
#538=VECTOR('',#892,1.);
#539=VECTOR('',#893,1.);
#540=VECTOR('',#894,1.);
#541=VECTOR('',#897,1.);
#542=VECTOR('',#898,1.);
#543=VECTOR('',#901,1.);
#544=VECTOR('',#904,1.);
#545=VECTOR('',#909,1.);
#546=VECTOR('',#910,1.);
#547=VECTOR('',#911,1.);
#548=VECTOR('',#914,1.);
#549=VECTOR('',#915,1.);
#550=VECTOR('',#920,1.);
#551=VECTOR('',#921,1.);
#552=VECTOR('',#924,1.);
#553=VECTOR('',#933,1.);
#554=VECTOR('',#936,1.);
#555=VECTOR('',#943,1.);
#556=VECTOR('',#946,1.);
#557=VECTOR('',#951,1.);
#558=VECTOR('',#954,1.);
#559=EDGE_LOOP('',(#27,#28,#29,#30,#31,#32,#33,#34));
#560=EDGE_LOOP('',(#35,#36,#37,#38,#39,#40));
#561=EDGE_LOOP('',(#41,#42,#43,#44,#45));
#562=EDGE_LOOP('',(#46,#47,#48,#49,#50,#51,#52,#53));
#563=EDGE_LOOP('',(#54));
#564=EDGE_LOOP('',(#55,#56,#57,#58,#59,#60,#61,#62));
#565=EDGE_LOOP('',(#63));
#566=EDGE_LOOP('',(#64,#65,#66,#67,#68,#69,#70,#71,#72,#73));
#567=EDGE_LOOP('',(#74,#75,#76,#77));
#568=EDGE_LOOP('',(#78));
#569=EDGE_LOOP('',(#79));
#570=EDGE_LOOP('',(#80,#81,#82,#83,#84,#85,#86,#87,#88,#89,#90,#91));
#571=EDGE_LOOP('',(#92,#93,#94,#95));
#572=EDGE_LOOP('',(#96));
#573=EDGE_LOOP('',(#97));
#574=EDGE_LOOP('',(#98,#99,#100,#101,#102,#103,#104,#105,#106,#107,#108,
#109));
#575=EDGE_LOOP('',(#110));
#576=EDGE_LOOP('',(#111,#112,#113,#114,#115,#116,#117));
#577=EDGE_LOOP('',(#118));
#578=EDGE_LOOP('',(#119));
#579=EDGE_LOOP('',(#120,#121,#122,#123,#124,#125,#126,#127,#128,#129,#130,
#131));
#580=EDGE_LOOP('',(#132,#133,#134,#135,#136,#137,#138,#139));
#581=EDGE_LOOP('',(#140,#141,#142,#143));
#582=EDGE_LOOP('',(#144,#145,#146,#147));
#583=EDGE_LOOP('',(#148,#149,#150,#151));
#584=EDGE_LOOP('',(#152,#153,#154,#155));
#585=EDGE_LOOP('',(#156,#157,#158,#159,#160));
#586=EDGE_LOOP('',(#161));
#587=EDGE_LOOP('',(#162,#163,#164,#165));
#588=EDGE_LOOP('',(#166,#167,#168,#169,#170));
#589=EDGE_LOOP('',(#171,#172,#173,#174));
#590=EDGE_LOOP('',(#175));
#591=EDGE_LOOP('',(#176));
#592=EDGE_LOOP('',(#177));
#593=EDGE_LOOP('',(#178));
#594=EDGE_LOOP('',(#179,#180,#181,#182));
#595=EDGE_LOOP('',(#183,#184,#185,#186));
#596=EDGE_LOOP('',(#187,#188,#189,#190));
#597=EDGE_LOOP('',(#191));
#598=EDGE_LOOP('',(#192));
#599=EDGE_LOOP('',(#193,#194,#195,#196));
#600=EDGE_LOOP('',(#197,#198,#199,#200));
#601=EDGE_LOOP('',(#201,#202,#203,#204));
#602=EDGE_LOOP('',(#205,#206,#207,#208));
#603=EDGE_LOOP('',(#209,#210,#211,#212));
#604=EDGE_LOOP('',(#213,#214,#215,#216));
#605=EDGE_LOOP('',(#217));
#606=EDGE_LOOP('',(#218));
#607=EDGE_LOOP('',(#219));
#608=EDGE_LOOP('',(#220));
#609=FACE_BOUND('',#559,.T.);
#610=FACE_BOUND('',#560,.T.);
#611=FACE_BOUND('',#561,.T.);
#612=FACE_BOUND('',#562,.T.);
#613=FACE_BOUND('',#563,.T.);
#614=FACE_BOUND('',#564,.T.);
#615=FACE_BOUND('',#565,.T.);
#616=FACE_BOUND('',#566,.T.);
#617=FACE_BOUND('',#567,.T.);
#618=FACE_BOUND('',#568,.T.);
#619=FACE_BOUND('',#569,.T.);
#620=FACE_BOUND('',#570,.T.);
#621=FACE_BOUND('',#571,.T.);
#622=FACE_BOUND('',#572,.T.);
#623=FACE_BOUND('',#573,.T.);
#624=FACE_BOUND('',#574,.T.);
#625=FACE_BOUND('',#575,.T.);
#626=FACE_BOUND('',#576,.T.);
#627=FACE_BOUND('',#577,.T.);
#628=FACE_BOUND('',#578,.T.);
#629=FACE_BOUND('',#579,.T.);
#630=FACE_BOUND('',#580,.T.);
#631=FACE_BOUND('',#581,.T.);
#632=FACE_BOUND('',#582,.T.);
#633=FACE_BOUND('',#583,.T.);
#634=FACE_BOUND('',#584,.T.);
#635=FACE_BOUND('',#585,.T.);
#636=FACE_BOUND('',#586,.T.);
#637=FACE_BOUND('',#587,.T.);
#638=FACE_BOUND('',#588,.T.);
#639=FACE_BOUND('',#589,.T.);
#640=FACE_BOUND('',#590,.T.);
#641=FACE_BOUND('',#591,.T.);
#642=FACE_BOUND('',#592,.T.);
#643=FACE_BOUND('',#593,.T.);
#644=FACE_BOUND('',#594,.T.);
#645=FACE_BOUND('',#595,.T.);
#646=FACE_BOUND('',#596,.T.);
#647=FACE_BOUND('',#597,.T.);
#648=FACE_BOUND('',#598,.T.);
#649=FACE_BOUND('',#599,.T.);
#650=FACE_BOUND('',#600,.T.);
#651=FACE_BOUND('',#601,.T.);
#652=FACE_BOUND('',#602,.T.);
#653=FACE_BOUND('',#603,.T.);
#654=FACE_BOUND('',#604,.T.);
#655=FACE_BOUND('',#605,.T.);
#656=FACE_BOUND('',#606,.T.);
#657=FACE_BOUND('',#607,.T.);
#658=FACE_BOUND('',#608,.T.);
#659=PLANE('',#737);
#660=PLANE('',#738);
#661=PLANE('',#739);
#662=PLANE('',#740);
#663=PLANE('',#741);
#664=PLANE('',#743);
#665=PLANE('',#745);
#666=PLANE('',#746);
#667=PLANE('',#749);
#668=PLANE('',#750);
#669=PLANE('',#753);
#670=PLANE('',#755);
#671=PLANE('',#758);
#672=PLANE('',#759);
#673=PLANE('',#760);
#674=PLANE('',#761);
#675=PLANE('',#762);
#676=PLANE('',#763);
#677=PLANE('',#764);
#678=PLANE('',#766);
#679=PLANE('',#767);
#680=PLANE('',#770);
#681=PLANE('',#771);
#682=PLANE('',#772);
#683=PLANE('',#774);
#684=PLANE('',#775);
#685=PLANE('',#776);
#686=PLANE('',#777);
#687=PLANE('',#778);
#688=PLANE('',#779);
#689=ADVANCED_FACE('',(#609),#659,.F.);
#690=ADVANCED_FACE('',(#610),#660,.T.);
#691=ADVANCED_FACE('',(#611),#661,.T.);
#692=ADVANCED_FACE('',(#612),#662,.T.);
#693=ADVANCED_FACE('',(#613,#614),#663,.T.);
#694=ADVANCED_FACE('',(#615,#616),#664,.F.);
#695=ADVANCED_FACE('',(#617),#665,.F.);
#696=ADVANCED_FACE('',(#618,#619,#620),#666,.T.);
#697=ADVANCED_FACE('',(#621),#667,.F.);
#698=ADVANCED_FACE('',(#622,#623,#624),#668,.F.);
#699=ADVANCED_FACE('',(#625,#626),#669,.T.);
#700=ADVANCED_FACE('',(#627,#628,#629),#670,.T.);
#701=ADVANCED_FACE('',(#630),#671,.F.);
#702=ADVANCED_FACE('',(#631),#672,.F.);
#703=ADVANCED_FACE('',(#632),#673,.T.);
#704=ADVANCED_FACE('',(#633),#674,.T.);
#705=ADVANCED_FACE('',(#634),#675,.F.);
#706=ADVANCED_FACE('',(#635),#676,.T.);
#707=ADVANCED_FACE('',(#636,#637),#677,.F.);
#708=ADVANCED_FACE('',(#638),#678,.F.);
#709=ADVANCED_FACE('',(#639),#679,.T.);
#710=ADVANCED_FACE('',(#640,#641),#12,.F.);
#711=ADVANCED_FACE('',(#642,#643),#13,.F.);
#712=ADVANCED_FACE('',(#644),#680,.F.);
#713=ADVANCED_FACE('',(#645),#681,.T.);
#714=ADVANCED_FACE('',(#646),#682,.T.);
#715=ADVANCED_FACE('',(#647,#648),#14,.F.);
#716=ADVANCED_FACE('',(#649),#683,.T.);
#717=ADVANCED_FACE('',(#650),#684,.F.);
#718=ADVANCED_FACE('',(#651),#685,.T.);
#719=ADVANCED_FACE('',(#652),#686,.F.);
#720=ADVANCED_FACE('',(#653),#687,.T.);
#721=ADVANCED_FACE('',(#654),#688,.T.);
#722=ADVANCED_FACE('',(#655,#656),#15,.F.);
#723=ADVANCED_FACE('',(#657,#658),#16,.F.);
#724=CLOSED_SHELL('',(#689,#690,#691,#692,#693,#694,#695,#696,#697,#698,
#699,#700,#701,#702,#703,#704,#705,#706,#707,#708,#709,#710,#711,#712,#713,
#714,#715,#716,#717,#718,#719,#720,#721,#722,#723));
#725=STYLED_ITEM('',(#726),#733);
#726=PRESENTATION_STYLE_ASSIGNMENT((#727));
#727=SURFACE_STYLE_USAGE(.BOTH.,#728);
#728=SURFACE_SIDE_STYLE('',(#729));
#729=SURFACE_STYLE_FILL_AREA(#730);
#730=FILL_AREA_STYLE('',(#731));
#731=FILL_AREA_STYLE_COLOUR('',#732);
#732=COLOUR_RGB('',0.615686274509804,0.811764705882353,0.929411764705882);
#733=MANIFOLD_SOLID_BREP('Part 1',#724);
#734=SHAPE_DEFINITION_REPRESENTATION(#1167,#735);
#735=SHAPE_REPRESENTATION('Part 1',(#736),#1162);
#736=AXIS2_PLACEMENT_3D('',#961,#782,#783);
#737=AXIS2_PLACEMENT_3D('',#962,#784,#785);
#738=AXIS2_PLACEMENT_3D('',#979,#794,#795);
#739=AXIS2_PLACEMENT_3D('',#992,#802,#803);
#740=AXIS2_PLACEMENT_3D('',#1003,#809,#810);
#741=AXIS2_PLACEMENT_3D('',#1020,#819,#820);
#742=AXIS2_PLACEMENT_3D('',#1021,#821,#822);
#743=AXIS2_PLACEMENT_3D('',#1030,#828,#829);
#744=AXIS2_PLACEMENT_3D('',#1031,#830,#831);
#745=AXIS2_PLACEMENT_3D('',#1043,#838,#839);
#746=AXIS2_PLACEMENT_3D('',#1047,#842,#843);
#747=AXIS2_PLACEMENT_3D('',#1048,#844,#845);
#748=AXIS2_PLACEMENT_3D('',#1050,#846,#847);
#749=AXIS2_PLACEMENT_3D('',#1067,#857,#858);
#750=AXIS2_PLACEMENT_3D('',#1071,#861,#862);
#751=AXIS2_PLACEMENT_3D('',#1072,#863,#864);
#752=AXIS2_PLACEMENT_3D('',#1074,#865,#866);
#753=AXIS2_PLACEMENT_3D('',#1089,#875,#876);
#754=AXIS2_PLACEMENT_3D('',#1090,#877,#878);
#755=AXIS2_PLACEMENT_3D('',#1097,#882,#883);
#756=AXIS2_PLACEMENT_3D('',#1098,#884,#885);
#757=AXIS2_PLACEMENT_3D('',#1100,#886,#887);
#758=AXIS2_PLACEMENT_3D('',#1114,#895,#896);
#759=AXIS2_PLACEMENT_3D('',#1117,#899,#900);
#760=AXIS2_PLACEMENT_3D('',#1119,#902,#903);
#761=AXIS2_PLACEMENT_3D('',#1121,#905,#906);
#762=AXIS2_PLACEMENT_3D('',#1122,#907,#908);
#763=AXIS2_PLACEMENT_3D('',#1128,#912,#913);
#764=AXIS2_PLACEMENT_3D('',#1132,#916,#917);
#765=AXIS2_PLACEMENT_3D('',#1133,#918,#919);
#766=AXIS2_PLACEMENT_3D('',#1138,#922,#923);
#767=AXIS2_PLACEMENT_3D('',#1140,#925,#926);
#768=AXIS2_PLACEMENT_3D('',#1141,#927,#928);
#769=AXIS2_PLACEMENT_3D('',#1142,#929,#930);
#770=AXIS2_PLACEMENT_3D('',#1143,#931,#932);
#771=AXIS2_PLACEMENT_3D('',#1145,#934,#935);
#772=AXIS2_PLACEMENT_3D('',#1147,#937,#938);
#773=AXIS2_PLACEMENT_3D('',#1148,#939,#940);
#774=AXIS2_PLACEMENT_3D('',#1149,#941,#942);
#775=AXIS2_PLACEMENT_3D('',#1151,#944,#945);
#776=AXIS2_PLACEMENT_3D('',#1153,#947,#948);
#777=AXIS2_PLACEMENT_3D('',#1154,#949,#950);
#778=AXIS2_PLACEMENT_3D('',#1156,#952,#953);
#779=AXIS2_PLACEMENT_3D('',#1158,#955,#956);
#780=AXIS2_PLACEMENT_3D('',#1159,#957,#958);
#781=AXIS2_PLACEMENT_3D('',#1160,#959,#960);
#782=DIRECTION('',(0.,0.,1.));
#783=DIRECTION('',(1.,0.,0.));
#784=DIRECTION('',(0.,0.,1.));
#785=DIRECTION('',(1.,0.,0.));
#786=DIRECTION('',(-1.,0.,0.));
#787=DIRECTION('',(0.,1.,0.));
#788=DIRECTION('',(-1.,-1.0897852775875E-16,0.));
#789=DIRECTION('',(-2.4320461239711E-16,1.,0.));
#790=DIRECTION('',(1.,0.,0.));
#791=DIRECTION('',(-2.61958169557296E-16,-1.,0.));
#792=DIRECTION('',(1.,0.,0.));
#793=DIRECTION('',(0.,-1.,0.));
#794=DIRECTION('',(0.,0.,1.));
#795=DIRECTION('',(1.,0.,0.));
#796=DIRECTION('',(0.,-1.,0.));
#797=DIRECTION('',(1.,0.,0.));
#798=DIRECTION('',(0.,-1.,0.));
#799=DIRECTION('',(-1.,-1.0897852775875E-16,0.));
#800=DIRECTION('',(0.,1.,0.));
#801=DIRECTION('',(-1.,0.,0.));
#802=DIRECTION('',(0.,0.,1.));
#803=DIRECTION('',(1.,0.,0.));
#804=DIRECTION('',(0.,-1.,0.));
#805=DIRECTION('',(-2.61958169557296E-16,-1.,0.));
#806=DIRECTION('',(1.,0.,0.));
#807=DIRECTION('',(-2.4320461239711E-16,1.,0.));
#808=DIRECTION('',(-1.,-1.0897852775875E-16,0.));
#809=DIRECTION('',(0.,0.,1.));
#810=DIRECTION('',(1.,0.,0.));
#811=DIRECTION('',(-1.,0.,0.));
#812=DIRECTION('',(0.,1.,0.));
#813=DIRECTION('',(-1.,-1.0897852775875E-16,0.));
#814=DIRECTION('',(-2.4320461239711E-16,1.,0.));
#815=DIRECTION('',(1.,0.,0.));
#816=DIRECTION('',(-2.61958169557296E-16,-1.,0.));
#817=DIRECTION('',(1.,0.,0.));
#818=DIRECTION('',(0.,-1.,0.));
#819=DIRECTION('',(1.0897852775875E-16,-1.,0.));
#820=DIRECTION('',(1.,1.0897852775875E-16,0.));
#821=DIRECTION('',(1.0897852775875E-16,-1.,0.));
#822=DIRECTION('',(1.,1.0897852775875E-16,0.));
#823=DIRECTION('',(0.,0.,-1.));
#824=DIRECTION('',(0.,0.,-1.));
#825=DIRECTION('',(-1.,-1.0897852775875E-16,0.));
#826=DIRECTION('',(0.,0.,-1.));
#827=DIRECTION('',(0.,0.,-1.));
#828=DIRECTION('',(-1.,0.,0.));
#829=DIRECTION('',(0.,0.,1.));
#830=DIRECTION('',(1.,0.,0.));
#831=DIRECTION('',(0.,0.,-1.));
#832=DIRECTION('',(0.,0.,1.));
#833=DIRECTION('',(0.,1.,0.));
#834=DIRECTION('',(0.,0.,1.));
#835=DIRECTION('',(0.,1.,0.));
#836=DIRECTION('',(0.,0.,-1.));
#837=DIRECTION('',(0.,1.,0.));
#838=DIRECTION('',(1.0897852775875E-16,-1.,0.));
#839=DIRECTION('',(1.,1.0897852775875E-16,0.));
#840=DIRECTION('',(-1.,-1.0897852775875E-16,0.));
#841=DIRECTION('',(0.,0.,-1.));
#842=DIRECTION('',(1.,-2.61958169557296E-16,0.));
#843=DIRECTION('',(2.61958169557296E-16,1.,0.));
#844=DIRECTION('',(1.,-2.61958169557296E-16,0.));
#845=DIRECTION('',(2.61958169557296E-16,1.,0.));
#846=DIRECTION('',(1.,-2.61958169557296E-16,0.));
#847=DIRECTION('',(2.61958169557296E-16,1.,0.));
#848=DIRECTION('',(-2.61958169557296E-16,-1.,0.));
#849=DIRECTION('',(0.,0.,-1.));
#850=DIRECTION('',(0.,0.,-1.));
#851=DIRECTION('',(-2.61958169557296E-16,-1.,0.));
#852=DIRECTION('',(0.,0.,-1.));
#853=DIRECTION('',(0.,0.,-1.));
#854=DIRECTION('',(0.,0.,1.));
#855=DIRECTION('',(-2.61958169557296E-16,-1.,0.));
#856=DIRECTION('',(0.,0.,1.));
#857=DIRECTION('',(0.,1.,0.));
#858=DIRECTION('',(0.,0.,1.));
#859=DIRECTION('',(1.,0.,0.));
#860=DIRECTION('',(0.,0.,-1.));
#861=DIRECTION('',(1.,0.,0.));
#862=DIRECTION('',(0.,0.,-1.));
#863=DIRECTION('',(1.,0.,0.));
#864=DIRECTION('',(0.,0.,-1.));
#865=DIRECTION('',(1.,0.,0.));
#866=DIRECTION('',(0.,0.,-1.));
#867=DIRECTION('',(0.,-1.,0.));
#868=DIRECTION('',(0.,0.,1.));
#869=DIRECTION('',(0.,-1.,0.));
#870=DIRECTION('',(0.,0.,1.));
#871=DIRECTION('',(0.,0.,-1.));
#872=DIRECTION('',(0.,0.,-1.));
#873=DIRECTION('',(0.,-1.,0.));
#874=DIRECTION('',(0.,0.,-1.));
#875=DIRECTION('',(0.,1.,0.));
#876=DIRECTION('',(0.,0.,1.));
#877=DIRECTION('',(0.,1.,0.));
#878=DIRECTION('',(0.,0.,1.));
#879=DIRECTION('',(0.,0.,-1.));
#880=DIRECTION('',(1.,0.,0.));
#881=DIRECTION('',(0.,0.,-1.));
#882=DIRECTION('',(-1.,-2.4320461239711E-16,0.));
#883=DIRECTION('',(2.4320461239711E-16,-1.,0.));
#884=DIRECTION('',(-1.,-2.4320461239711E-16,0.));
#885=DIRECTION('',(2.4320461239711E-16,-1.,0.));
#886=DIRECTION('',(-1.,-2.4320461239711E-16,0.));
#887=DIRECTION('',(2.4320461239711E-16,-1.,0.));
#888=DIRECTION('',(0.,0.,-1.));
#889=DIRECTION('',(-2.4320461239711E-16,1.,0.));
#890=DIRECTION('',(0.,0.,-1.));
#891=DIRECTION('',(-2.4320461239711E-16,1.,0.));
#892=DIRECTION('',(0.,0.,1.));
#893=DIRECTION('',(-2.4320461239711E-16,1.,0.));
#894=DIRECTION('',(0.,0.,1.));
#895=DIRECTION('',(0.,0.,1.));
#896=DIRECTION('',(1.,0.,0.));
#897=DIRECTION('',(-1.,0.,0.));
#898=DIRECTION('',(1.,0.,0.));
#899=DIRECTION('',(0.,1.,0.));
#900=DIRECTION('',(0.,0.,1.));
#901=DIRECTION('',(1.,0.,0.));
#902=DIRECTION('',(0.,1.,0.));
#903=DIRECTION('',(0.,0.,1.));
#904=DIRECTION('',(1.,0.,0.));
#905=DIRECTION('',(0.,0.,1.));
#906=DIRECTION('',(1.,0.,0.));
#907=DIRECTION('',(0.,0.,1.));
#908=DIRECTION('',(1.,0.,0.));
#909=DIRECTION('',(-1.,0.,0.));
#910=DIRECTION('',(-1.,0.,0.));
#911=DIRECTION('',(0.,1.,0.));
#912=DIRECTION('',(0.,-1.,0.));
#913=DIRECTION('',(0.,0.,-1.));
#914=DIRECTION('',(0.,0.,-1.));
#915=DIRECTION('',(-1.,0.,0.));
#916=DIRECTION('',(-1.,0.,0.));
#917=DIRECTION('',(0.,0.,1.));
#918=DIRECTION('',(1.,0.,0.));
#919=DIRECTION('',(0.,0.,-1.));
#920=DIRECTION('',(0.,0.,-1.));
#921=DIRECTION('',(0.,1.,0.));
#922=DIRECTION('',(0.,-1.,0.));
#923=DIRECTION('',(0.,0.,-1.));
#924=DIRECTION('',(-1.,0.,0.));
#925=DIRECTION('',(0.,0.,1.));
#926=DIRECTION('',(1.,0.,0.));
#927=DIRECTION('',(1.,0.,0.));
#928=DIRECTION('',(0.,0.,-1.));
#929=DIRECTION('',(1.,0.,0.));
#930=DIRECTION('',(0.,0.,-1.));
#931=DIRECTION('',(1.,0.,0.));
#932=DIRECTION('',(0.,0.,-1.));
#933=DIRECTION('',(0.,-1.,0.));
#934=DIRECTION('',(1.,0.,0.));
#935=DIRECTION('',(0.,0.,-1.));
#936=DIRECTION('',(0.,-1.,0.));
#937=DIRECTION('',(0.,0.,1.));
#938=DIRECTION('',(1.,0.,0.));
#939=DIRECTION('',(0.,1.,0.));
#940=DIRECTION('',(0.,0.,1.));
#941=DIRECTION('',(0.,-1.,0.));
#942=DIRECTION('',(0.,0.,-1.));
#943=DIRECTION('',(1.,0.,0.));
#944=DIRECTION('',(0.,-1.,0.));
#945=DIRECTION('',(0.,0.,-1.));
#946=DIRECTION('',(1.,0.,0.));
#947=DIRECTION('',(0.,0.,-1.));
#948=DIRECTION('',(1.,0.,0.));
#949=DIRECTION('',(0.,1.,0.));
#950=DIRECTION('',(0.,0.,1.));
#951=DIRECTION('',(-1.,0.,0.));
#952=DIRECTION('',(0.,1.,0.));
#953=DIRECTION('',(0.,0.,1.));
#954=DIRECTION('',(-1.,0.,0.));
#955=DIRECTION('',(0.,0.,-1.));
#956=DIRECTION('',(1.,0.,0.));
#957=DIRECTION('',(1.,0.,0.));
#958=DIRECTION('',(0.,0.,-1.));
#959=DIRECTION('',(1.,0.,0.));
#960=DIRECTION('',(0.,0.,-1.));
#961=CARTESIAN_POINT('',(0.,0.,0.));
#962=CARTESIAN_POINT('',(0.0123115197420121,-0.0270960621237755,0.));
#963=CARTESIAN_POINT('',(0.261079509871006,-0.0519363186035156,0.));
#964=CARTESIAN_POINT('',(0.267,-0.0519363186035156,0.));
#965=CARTESIAN_POINT('',(0.255159019742012,-0.0519363186035156,0.));
#966=CARTESIAN_POINT('',(0.267,0.00712438005208969,0.));
#967=CARTESIAN_POINT('',(0.267,-0.107,0.));
#968=CARTESIAN_POINT('',(0.0123115197420121,-0.107,0.));
#969=CARTESIAN_POINT('',(-0.242376960515976,-0.107,0.));
#970=CARTESIAN_POINT('',(-0.242376960515976,0.00712438005208964,0.));
#971=CARTESIAN_POINT('',(-0.242376960515976,-0.0519363186035158,0.));
#972=CARTESIAN_POINT('',(-0.236456470386982,-0.0519363186035158,0.));
#973=CARTESIAN_POINT('',(-0.230535980257988,-0.0519363186035158,0.));
#974=CARTESIAN_POINT('',(-0.230535980257988,0.00712438005208968,0.));
#975=CARTESIAN_POINT('',(-0.230535980257988,-0.0988298479169607,0.));
#976=CARTESIAN_POINT('',(0.012311519742012,-0.0988298479169607,0.));
#977=CARTESIAN_POINT('',(0.255159019742012,-0.0988298479169607,0.));
#978=CARTESIAN_POINT('',(0.255159019742012,0.00712438005208968,0.));
#979=CARTESIAN_POINT('',(0.0123115197420121,-0.0270960621237755,0.0127));
#980=CARTESIAN_POINT('',(0.255159019742012,0.00712438005208968,0.0127));
#981=CARTESIAN_POINT('',(0.255159019742012,-0.0518885590136051,0.0127));
#982=CARTESIAN_POINT('',(0.255159019742012,-0.0988298479169607,0.0127));
#983=CARTESIAN_POINT('',(0.012311519742012,-0.0988298479169607,0.0127));
#984=CARTESIAN_POINT('',(0.255609542131424,-0.0988298479169607,0.0127));
#985=CARTESIAN_POINT('',(0.255609542131424,-0.10291492395848,0.0127));
#986=CARTESIAN_POINT('',(0.255609542131424,-0.107,0.0127));
#987=CARTESIAN_POINT('',(0.0123115197420121,-0.107,0.0127));
#988=CARTESIAN_POINT('',(0.267,-0.107,0.0127));
#989=CARTESIAN_POINT('',(0.267,0.00712438005208969,0.0127));
#990=CARTESIAN_POINT('',(0.267,-0.0518885590136051,0.0127));
#991=CARTESIAN_POINT('',(0.261159019742012,-0.0518885590136051,0.0127));
#992=CARTESIAN_POINT('',(0.0123115197420121,-0.0270960621237755,0.0127));
#993=CARTESIAN_POINT('',(-0.230535980257988,-0.10291492395848,0.0127));
#994=CARTESIAN_POINT('',(-0.230535980257988,-0.0988298479169607,0.0127));
#995=CARTESIAN_POINT('',(-0.230535980257988,-0.107,0.0127));
#996=CARTESIAN_POINT('',(-0.230535980257988,0.00712438005208968,0.0127));
#997=CARTESIAN_POINT('',(-0.230535980257988,-0.0518885590136052,0.0127));
#998=CARTESIAN_POINT('',(-0.236535980257988,-0.0518885590136052,0.0127));
#999=CARTESIAN_POINT('',(-0.242376960515976,-0.0518885590136052,0.0127));
#1000=CARTESIAN_POINT('',(-0.242376960515976,0.00712438005208964,0.0127));
#1001=CARTESIAN_POINT('',(-0.242376960515976,-0.107,0.0127));
#1002=CARTESIAN_POINT('',(0.0123115197420121,-0.107,0.0127));
#1003=CARTESIAN_POINT('',(0.0123115197420121,-0.0270960621237755,0.0127));
#1004=CARTESIAN_POINT('',(0.261159019742012,0.0518885590136051,0.0127));
#1005=CARTESIAN_POINT('',(0.267,0.0518885590136051,0.0127));
#1006=CARTESIAN_POINT('',(0.255159019742012,0.0518885590136051,0.0127));
#1007=CARTESIAN_POINT('',(0.267,0.00712438005208969,0.0127));
#1008=CARTESIAN_POINT('',(0.267,0.121248760104179,0.0127));
#1009=CARTESIAN_POINT('',(0.0123115197420121,0.121248760104179,0.0127));
#1010=CARTESIAN_POINT('',(-0.242376960515976,0.121248760104179,0.0127));
#1011=CARTESIAN_POINT('',(-0.242376960515976,0.00712438005208964,0.0127));
#1012=CARTESIAN_POINT('',(-0.242376960515976,0.0518885590136051,0.0127));
#1013=CARTESIAN_POINT('',(-0.236535980257988,0.0518885590136051,0.0127));
#1014=CARTESIAN_POINT('',(-0.230535980257988,0.0518885590136051,0.0127));
#1015=CARTESIAN_POINT('',(-0.230535980257988,0.00712438005208968,0.0127));
#1016=CARTESIAN_POINT('',(-0.230535980257988,0.11307860802114,0.0127));
#1017=CARTESIAN_POINT('',(0.0123115197420121,0.11307860802114,0.0127));
#1018=CARTESIAN_POINT('',(0.255159019742012,0.11307860802114,0.0127));
#1019=CARTESIAN_POINT('',(0.255159019742012,0.00712438005208968,0.0127));
#1020=CARTESIAN_POINT('',(0.0123115197420121,-0.107,0.0127));
#1021=CARTESIAN_POINT('',(-0.00539045786857607,-0.107,0.02335));
#1022=CARTESIAN_POINT('',(0.00222954213142393,-0.107,0.02335));
#1023=CARTESIAN_POINT('',(0.267,-0.107,0.0127));
#1024=CARTESIAN_POINT('',(0.255609542131424,-0.107,0.0467));
#1025=CARTESIAN_POINT('',(0.255609542131424,-0.107,0.0467));
#1026=CARTESIAN_POINT('',(0.0123115197420121,-0.107,0.0467));
#1027=CARTESIAN_POINT('',(-0.230535980257988,-0.107,0.0467));
#1028=CARTESIAN_POINT('',(-0.230535980257988,-0.107,0.0467));
#1029=CARTESIAN_POINT('',(-0.242376960515976,-0.107,0.0127));
#1030=CARTESIAN_POINT('',(0.267,0.00712438005208969,0.0127));
#1031=CARTESIAN_POINT('',(0.267,-0.000182243113788909,-0.0506149774314635));
#1032=CARTESIAN_POINT('',(0.267,-0.000182243113788909,-0.0582349774314635));
#1033=CARTESIAN_POINT('',(0.267,-0.0519363186035156,-0.1016));
#1034=CARTESIAN_POINT('',(0.267,-0.0519363186035156,-0.1016));
#1035=CARTESIAN_POINT('',(0.267,0.00712438005208969,-0.1016));
#1036=CARTESIAN_POINT('',(0.267,0.0512046813964844,-0.1016));
#1037=CARTESIAN_POINT('',(0.267,0.0512046813964844,-0.1016));
#1038=CARTESIAN_POINT('',(0.267,0.0512046813964844,0.));
#1039=CARTESIAN_POINT('',(0.267,0.00712438005208969,0.));
#1040=CARTESIAN_POINT('',(0.267,0.121248760104179,0.));
#1041=CARTESIAN_POINT('',(0.267,0.121248760104179,0.0127));
#1042=CARTESIAN_POINT('',(0.267,0.00712438005208969,0.0127));
#1043=CARTESIAN_POINT('',(0.0123115197420121,0.121248760104179,0.0127));
#1044=CARTESIAN_POINT('',(0.0123115197420121,0.121248760104179,0.));
#1045=CARTESIAN_POINT('',(-0.242376960515976,0.121248760104179,0.));
#1046=CARTESIAN_POINT('',(-0.242376960515976,0.121248760104179,0.0127));
#1047=CARTESIAN_POINT('',(-0.230535980257988,0.00712438005208968,0.0127));
#1048=CARTESIAN_POINT('',(-0.230535980257988,-0.000182243113788909,-0.0506149774314635));
#1049=CARTESIAN_POINT('',(-0.230535980257988,0.00743775688621109,-0.0506149774314635));
#1050=CARTESIAN_POINT('',(-0.230535980257988,0.,0.0302));
#1051=CARTESIAN_POINT('',(-0.230535980257988,0.006731,0.0302));
#1052=CARTESIAN_POINT('',(-0.230535980257988,0.00712438005208968,0.));
#1053=CARTESIAN_POINT('',(-0.230535980257988,0.11307860802114,0.));
#1054=CARTESIAN_POINT('',(-0.230535980257988,0.0512046813964843,0.));
#1055=CARTESIAN_POINT('',(-0.230535980257988,0.11307860802114,0.0127));
#1056=CARTESIAN_POINT('',(-0.230535980257988,0.0518885590136051,0.0477));
#1057=CARTESIAN_POINT('',(-0.230535980257988,0.0518885590136051,0.0477));
#1058=CARTESIAN_POINT('',(-0.230535980257988,0.00712438005208968,0.0477));
#1059=CARTESIAN_POINT('',(-0.230535980257988,-0.0518885590136052,0.0477));
#1060=CARTESIAN_POINT('',(-0.230535980257988,-0.0518885590136052,0.0477));
#1061=CARTESIAN_POINT('',(-0.230535980257988,-0.0988298479169607,0.0127));
#1062=CARTESIAN_POINT('',(-0.230535980257988,-0.0519363186035158,-0.1016));
#1063=CARTESIAN_POINT('',(-0.230535980257988,-0.0519363186035158,-0.1016));
#1064=CARTESIAN_POINT('',(-0.230535980257988,0.00712438005208968,-0.1016));
#1065=CARTESIAN_POINT('',(-0.230535980257988,0.0512046813964843,-0.1016));
#1066=CARTESIAN_POINT('',(-0.230535980257988,0.0512046813964843,-0.1016));
#1067=CARTESIAN_POINT('',(0.0123115197420121,0.11307860802114,0.0127));
#1068=CARTESIAN_POINT('',(0.0123115197420121,0.11307860802114,0.));
#1069=CARTESIAN_POINT('',(0.255159019742012,0.11307860802114,0.));
#1070=CARTESIAN_POINT('',(0.255159019742012,0.11307860802114,0.0127));
#1071=CARTESIAN_POINT('',(0.255159019742012,0.00712438005208968,0.0127));
#1072=CARTESIAN_POINT('',(0.255159019742012,-0.000182243113788909,-0.0506149774314635));
#1073=CARTESIAN_POINT('',(0.255159019742012,-0.000182243113788909,-0.0582349774314635));
#1074=CARTESIAN_POINT('',(0.255159019742012,0.,0.0302));
#1075=CARTESIAN_POINT('',(0.255159019742012,0.,0.023469));
#1076=CARTESIAN_POINT('',(0.255159019742012,0.00712438005208968,0.));
#1077=CARTESIAN_POINT('',(0.255159019742012,0.0512046813964844,0.));
#1078=CARTESIAN_POINT('',(0.255159019742012,0.0512046813964844,-0.1016));
#1079=CARTESIAN_POINT('',(0.255159019742012,0.0512046813964844,-0.1016));
#1080=CARTESIAN_POINT('',(0.255159019742012,0.00712438005208968,-0.1016));
#1081=CARTESIAN_POINT('',(0.255159019742012,-0.0519363186035156,-0.1016));
#1082=CARTESIAN_POINT('',(0.255159019742012,-0.0519363186035156,-0.1016));
#1083=CARTESIAN_POINT('',(0.255159019742012,-0.0988298479169607,0.0127));
#1084=CARTESIAN_POINT('',(0.255159019742012,-0.0518885590136051,0.0477));
#1085=CARTESIAN_POINT('',(0.255159019742012,-0.0518885590136051,0.0477));
#1086=CARTESIAN_POINT('',(0.255159019742012,0.00712438005208968,0.0477));
#1087=CARTESIAN_POINT('',(0.255159019742012,0.0518885590136051,0.0477));
#1088=CARTESIAN_POINT('',(0.255159019742012,0.0518885590136051,0.0477));
#1089=CARTESIAN_POINT('',(0.012311519742012,-0.0988298479169607,0.0127));
#1090=CARTESIAN_POINT('',(-0.00539045786857607,-0.0988298479169607,0.02335));
#1091=CARTESIAN_POINT('',(-0.00539045786857607,-0.0988298479169607,0.03097));
#1092=CARTESIAN_POINT('',(-0.230535980257988,-0.0988298479169607,0.0467));
#1093=CARTESIAN_POINT('',(-0.230535980257988,-0.0988298479169607,0.0467));
#1094=CARTESIAN_POINT('',(0.012311519742012,-0.0988298479169607,0.0467));
#1095=CARTESIAN_POINT('',(0.255609542131424,-0.0988298479169607,0.0467));
#1096=CARTESIAN_POINT('',(0.255609542131424,-0.0988298479169607,0.0467));
#1097=CARTESIAN_POINT('',(-0.242376960515976,0.00712438005208964,0.0127));
#1098=CARTESIAN_POINT('',(-0.242376960515976,-0.000182243113788909,-0.0506149774314635));
#1099=CARTESIAN_POINT('',(-0.242376960515976,-0.00780224311378891,-0.0506149774314635));
#1100=CARTESIAN_POINT('',(-0.242376960515976,0.,0.0302));
#1101=CARTESIAN_POINT('',(-0.242376960515976,-0.006731,0.0302));
#1102=CARTESIAN_POINT('',(-0.242376960515976,-0.0518885590136052,0.0477));
#1103=CARTESIAN_POINT('',(-0.242376960515976,-0.0518885590136052,0.0477));
#1104=CARTESIAN_POINT('',(-0.242376960515976,0.00712438005208964,0.0477));
#1105=CARTESIAN_POINT('',(-0.242376960515976,0.0518885590136051,0.0477));
#1106=CARTESIAN_POINT('',(-0.242376960515976,0.0518885590136051,0.0477));
#1107=CARTESIAN_POINT('',(-0.242376960515976,0.00712438005208964,0.));
#1108=CARTESIAN_POINT('',(-0.242376960515976,0.0512046813964843,0.));
#1109=CARTESIAN_POINT('',(-0.242376960515976,0.0512046813964843,-0.1016));
#1110=CARTESIAN_POINT('',(-0.242376960515976,0.0512046813964843,-0.1016));
#1111=CARTESIAN_POINT('',(-0.242376960515976,0.00712438005208964,-0.1016));
#1112=CARTESIAN_POINT('',(-0.242376960515976,-0.0519363186035158,-0.1016));
#1113=CARTESIAN_POINT('',(-0.242376960515976,-0.0519363186035158,-0.1016));
#1114=CARTESIAN_POINT('',(0.0123115197420121,-0.0270960621237755,0.));
#1115=CARTESIAN_POINT('',(0.261079509871006,0.0512046813964844,0.));
#1116=CARTESIAN_POINT('',(-0.236456470386982,0.0512046813964843,0.));
#1117=CARTESIAN_POINT('',(-0.236535980257988,-0.0518885590136052,0.0477));
#1118=CARTESIAN_POINT('',(-0.236535980257988,-0.0518885590136052,0.0477));
#1119=CARTESIAN_POINT('',(-0.236535980257988,0.0518885590136051,0.0477));
#1120=CARTESIAN_POINT('',(-0.236535980257988,0.0518885590136051,0.0477));
#1121=CARTESIAN_POINT('',(0.0255401134490967,0.011743,0.0477));
#1122=CARTESIAN_POINT('',(0.0255401134490967,0.011743,0.0127));
#1123=CARTESIAN_POINT('',(0.261159019742012,-0.0518885590136051,0.0127));
#1124=CARTESIAN_POINT('',(0.267159019742012,-0.0518885590136051,0.0127));
#1125=CARTESIAN_POINT('',(0.261159019742012,0.0518885590136051,0.0127));
#1126=CARTESIAN_POINT('',(0.267159019742012,0.0518885590136051,0.0127));
#1127=CARTESIAN_POINT('',(0.267159019742012,0.,0.0127));
#1128=CARTESIAN_POINT('',(0.261159019742012,-0.0518885590136051,0.0477));
#1129=CARTESIAN_POINT('',(0.267159019742012,-0.0518885590136051,0.0477));
#1130=CARTESIAN_POINT('',(0.267159019742012,-0.0518885590136051,0.0477));
#1131=CARTESIAN_POINT('',(0.261159019742012,-0.0518885590136051,0.0477));
#1132=CARTESIAN_POINT('',(0.267159019742012,0.,0.0477));
#1133=CARTESIAN_POINT('',(0.267159019742012,0.,0.0302));
#1134=CARTESIAN_POINT('',(0.267159019742012,0.,0.023469));
#1135=CARTESIAN_POINT('',(0.267159019742012,0.0518885590136051,0.0477));
#1136=CARTESIAN_POINT('',(0.267159019742012,0.0518885590136051,0.0477));
#1137=CARTESIAN_POINT('',(0.267159019742012,0.,0.0477));
#1138=CARTESIAN_POINT('',(0.261159019742012,0.0518885590136051,0.0477));
#1139=CARTESIAN_POINT('',(0.261159019742012,0.0518885590136051,0.0477));
#1140=CARTESIAN_POINT('',(0.0255401134490967,0.011743,0.0477));
#1141=CARTESIAN_POINT('',(-0.356840980257988,0.,0.0302));
#1142=CARTESIAN_POINT('',(-0.356840980257988,0.,0.0302));
#1143=CARTESIAN_POINT('',(-0.230535980257988,-0.10291492395848,0.0467));
#1144=CARTESIAN_POINT('',(-0.230535980257988,-0.10291492395848,0.0467));
#1145=CARTESIAN_POINT('',(0.255609542131424,-0.10291492395848,0.0467));
#1146=CARTESIAN_POINT('',(0.255609542131424,-0.10291492395848,0.0467));
#1147=CARTESIAN_POINT('',(0.0123115197420121,-0.0794442795068026,0.0467));
#1148=CARTESIAN_POINT('',(-0.00539045786857607,-0.221829847916961,0.02335));
#1149=CARTESIAN_POINT('',(-0.236456470386982,-0.0519363186035158,-0.1016));
#1150=CARTESIAN_POINT('',(-0.236456470386982,-0.0519363186035158,-0.1016));
#1151=CARTESIAN_POINT('',(-0.236456470386982,0.0512046813964843,-0.1016));
#1152=CARTESIAN_POINT('',(-0.236456470386982,0.0512046813964843,-0.1016));
#1153=CARTESIAN_POINT('',(-0.00792717421054839,-0.00829479432106017,-0.1016));
#1154=CARTESIAN_POINT('',(0.261079509871006,-0.0519363186035156,-0.1016));
#1155=CARTESIAN_POINT('',(0.261079509871006,-0.0519363186035156,-0.1016));
#1156=CARTESIAN_POINT('',(0.261079509871006,0.0512046813964844,-0.1016));
#1157=CARTESIAN_POINT('',(0.261079509871006,0.0512046813964844,-0.1016));
#1158=CARTESIAN_POINT('',(-0.00792717421054839,-0.00829479432106017,-0.1016));
#1159=CARTESIAN_POINT('',(-0.413,-0.000182243113788909,-0.0506149774314635));
#1160=CARTESIAN_POINT('',(-0.413,-0.000182243113788909,-0.0506149774314635));
#1161=MECHANICAL_DESIGN_GEOMETRIC_PRESENTATION_REPRESENTATION('',(#725),
#1162);
#1162=(
GEOMETRIC_REPRESENTATION_CONTEXT(3)
GLOBAL_UNCERTAINTY_ASSIGNED_CONTEXT((#1163))
GLOBAL_UNIT_ASSIGNED_CONTEXT((#1166,#1165,#1164))
REPRESENTATION_CONTEXT('Part 1','TOP_LEVEL_ASSEMBLY_PART')
);
#1163=UNCERTAINTY_MEASURE_WITH_UNIT(LENGTH_MEASURE(1.E-8),#1166,
'DISTANCE_ACCURACY_VALUE','Maximum Tolerance applied to model');
#1164=(
NAMED_UNIT(*)
SI_UNIT($,.STERADIAN.)
SOLID_ANGLE_UNIT()
);
#1165=(
NAMED_UNIT(*)
PLANE_ANGLE_UNIT()
SI_UNIT($,.RADIAN.)
);
#1166=(
LENGTH_UNIT()
NAMED_UNIT(*)
SI_UNIT($,.METRE.)
);
#1167=PRODUCT_DEFINITION_SHAPE('','',#1168);
#1168=PRODUCT_DEFINITION('','',#1170,#1169);
#1169=PRODUCT_DEFINITION_CONTEXT('',#1176,'design');
#1170=PRODUCT_DEFINITION_FORMATION_WITH_SPECIFIED_SOURCE('','',#1172,
 .NOT_KNOWN.);
#1171=PRODUCT_RELATED_PRODUCT_CATEGORY('','',(#1172));
#1172=PRODUCT('Part 1','Part 1','Part 1',(#1174));
#1173=PRODUCT_CATEGORY('','');
#1174=PRODUCT_CONTEXT('',#1176,'mechanical');
#1175=APPLICATION_PROTOCOL_DEFINITION('international standard',
'ap242_managed_model_based_3d_engineering',2020,#1176);
#1176=APPLICATION_CONTEXT('managed model based 3d engineering');
ENDSEC;
END-ISO-10303-21;
