ISO-10303-21;
HEADER;
/* Generated by software containing ST-Developer
 * from STEP Tools, Inc. (www.steptools.com) 
 */
/* OPTION: using custom renumber hook */

FILE_DESCRIPTION(
/* description */ ('STEP AP242 Edition 2',
'CAx-IF Rec.Pracs.---Representation and Presentation of Product Manufa
cturing Information (PMI)---4.0---2014-10-13',
'CAx-IF Rec.Pracs.---3D Tessellated Geometry---0.4---2014-09-14','2;1',
'CAx-IF Rec.Pracs.---User Defined Attributes---1.5---2016-08-15'),
/* implementation_level */ '2;1');

FILE_NAME(
/* name */ 'Part Studio 1',
/* time_stamp */ '2026-09-03T21:59:42Z',
/* author */ (''),
/* organization */ (''),
/* preprocessor_version */ 'ST-DEVELOPER v20',
/* originating_system */ 'ONSHAPE BY PTC INC, 1.220',
/* authorisation */ '  ');

FILE_SCHEMA (('AP242_MANAGED_MODEL_BASED_3D_ENGINEERING_MIM_LF { 1 0 10303 442 3 1 4 }'));
ENDSEC;

DATA;
#10=SHAPE_REPRESENTATION_RELATIONSHIP('','',#303,#11);
#11=ADVANCED_BREP_SHAPE_REPRESENTATION('',(#301),#491);
#12=CIRCLE('',#308,0.01305);
#13=CIRCLE('',#309,0.01305);
#14=CIRCLE('',#311,0.01325);
#15=CIRCLE('',#314,0.01325);
#16=CIRCLE('',#318,0.01305);
#17=CIRCLE('',#320,0.01305);
#18=CIRCLE('',#323,0.0145);
#19=CIRCLE('',#325,0.01305);
#20=CIRCLE('',#327,0.01305);
#21=CIRCLE('',#330,0.0145);
#22=CYLINDRICAL_SURFACE('',#307,0.01305);
#23=CYLINDRICAL_SURFACE('',#313,0.01325);
#24=CYLINDRICAL_SURFACE('',#319,0.01305);
#25=CYLINDRICAL_SURFACE('',#328,0.01305);
#26=CYLINDRICAL_SURFACE('',#329,0.0145);
#27=ORIENTED_EDGE('',*,*,#95,.T.);
#28=ORIENTED_EDGE('',*,*,#96,.T.);
#29=ORIENTED_EDGE('',*,*,#97,.F.);
#30=ORIENTED_EDGE('',*,*,#98,.T.);
#31=ORIENTED_EDGE('',*,*,#99,.T.);
#32=ORIENTED_EDGE('',*,*,#100,.F.);
#33=ORIENTED_EDGE('',*,*,#101,.F.);
#34=ORIENTED_EDGE('',*,*,#102,.T.);
#35=ORIENTED_EDGE('',*,*,#103,.F.);
#36=ORIENTED_EDGE('',*,*,#104,.F.);
#37=ORIENTED_EDGE('',*,*,#105,.F.);
#38=ORIENTED_EDGE('',*,*,#106,.T.);
#39=ORIENTED_EDGE('',*,*,#107,.T.);
#40=ORIENTED_EDGE('',*,*,#108,.F.);
#41=ORIENTED_EDGE('',*,*,#109,.F.);
#42=ORIENTED_EDGE('',*,*,#110,.T.);
#43=ORIENTED_EDGE('',*,*,#111,.F.);
#44=ORIENTED_EDGE('',*,*,#112,.T.);
#45=ORIENTED_EDGE('',*,*,#113,.T.);
#46=ORIENTED_EDGE('',*,*,#100,.T.);
#47=ORIENTED_EDGE('',*,*,#114,.T.);
#48=ORIENTED_EDGE('',*,*,#107,.F.);
#49=ORIENTED_EDGE('',*,*,#115,.F.);
#50=ORIENTED_EDGE('',*,*,#102,.F.);
#51=ORIENTED_EDGE('',*,*,#116,.T.);
#52=ORIENTED_EDGE('',*,*,#105,.T.);
#53=ORIENTED_EDGE('',*,*,#117,.F.);
#54=ORIENTED_EDGE('',*,*,#118,.F.);
#55=ORIENTED_EDGE('',*,*,#113,.F.);
#56=ORIENTED_EDGE('',*,*,#111,.T.);
#57=ORIENTED_EDGE('',*,*,#97,.T.);
#58=ORIENTED_EDGE('',*,*,#119,.T.);
#59=ORIENTED_EDGE('',*,*,#110,.F.);
#60=ORIENTED_EDGE('',*,*,#120,.F.);
#61=ORIENTED_EDGE('',*,*,#109,.T.);
#62=ORIENTED_EDGE('',*,*,#121,.F.);
#63=ORIENTED_EDGE('',*,*,#98,.F.);
#64=ORIENTED_EDGE('',*,*,#120,.T.);
#65=ORIENTED_EDGE('',*,*,#122,.F.);
#66=ORIENTED_EDGE('',*,*,#95,.F.);
#67=ORIENTED_EDGE('',*,*,#117,.T.);
#68=ORIENTED_EDGE('',*,*,#104,.T.);
#69=ORIENTED_EDGE('',*,*,#123,.F.);
#70=ORIENTED_EDGE('',*,*,#124,.F.);
#71=ORIENTED_EDGE('',*,*,#123,.T.);
#72=ORIENTED_EDGE('',*,*,#124,.T.);
#73=ORIENTED_EDGE('',*,*,#115,.T.);
#74=ORIENTED_EDGE('',*,*,#106,.F.);
#75=ORIENTED_EDGE('',*,*,#116,.F.);
#76=ORIENTED_EDGE('',*,*,#101,.T.);
#77=ORIENTED_EDGE('',*,*,#125,.F.);
#78=ORIENTED_EDGE('',*,*,#114,.F.);
#79=ORIENTED_EDGE('',*,*,#99,.F.);
#80=ORIENTED_EDGE('',*,*,#121,.T.);
#81=ORIENTED_EDGE('',*,*,#108,.T.);
#82=ORIENTED_EDGE('',*,*,#126,.F.);
#83=ORIENTED_EDGE('',*,*,#119,.F.);
#84=ORIENTED_EDGE('',*,*,#96,.F.);
#85=ORIENTED_EDGE('',*,*,#122,.T.);
#86=ORIENTED_EDGE('',*,*,#103,.T.);
#87=ORIENTED_EDGE('',*,*,#127,.T.);
#88=ORIENTED_EDGE('',*,*,#118,.T.);
#89=ORIENTED_EDGE('',*,*,#126,.T.);
#90=ORIENTED_EDGE('',*,*,#127,.F.);
#91=ORIENTED_EDGE('',*,*,#128,.F.);
#92=ORIENTED_EDGE('',*,*,#125,.T.);
#93=ORIENTED_EDGE('',*,*,#112,.F.);
#94=ORIENTED_EDGE('',*,*,#128,.T.);
#95=EDGE_CURVE('',#129,#130,#155,.T.);
#96=EDGE_CURVE('',#130,#131,#156,.T.);
#97=EDGE_CURVE('',#132,#131,#157,.T.);
#98=EDGE_CURVE('',#132,#133,#158,.T.);
#99=EDGE_CURVE('',#133,#134,#159,.T.);
#100=EDGE_CURVE('',#135,#134,#160,.T.);
#101=EDGE_CURVE('',#136,#135,#161,.T.);
#102=EDGE_CURVE('',#136,#129,#162,.T.);
#103=EDGE_CURVE('',#137,#138,#163,.T.);
#104=EDGE_CURVE('',#139,#137,#164,.T.);
#105=EDGE_CURVE('',#140,#139,#165,.T.);
#106=EDGE_CURVE('',#140,#141,#166,.T.);
#107=EDGE_CURVE('',#141,#142,#167,.T.);
#108=EDGE_CURVE('',#143,#142,#168,.T.);
#109=EDGE_CURVE('',#144,#143,#169,.T.);
#110=EDGE_CURVE('',#144,#138,#170,.T.);
#111=EDGE_CURVE('',#145,#145,#12,.T.);
#112=EDGE_CURVE('',#146,#146,#13,.T.);
#113=EDGE_CURVE('',#147,#147,#14,.T.);
#114=EDGE_CURVE('',#134,#142,#171,.T.);
#115=EDGE_CURVE('',#135,#141,#172,.T.);
#116=EDGE_CURVE('',#136,#140,#173,.T.);
#117=EDGE_CURVE('',#129,#139,#174,.T.);
#118=EDGE_CURVE('',#148,#148,#15,.F.);
#119=EDGE_CURVE('',#131,#138,#175,.T.);
#120=EDGE_CURVE('',#132,#144,#176,.T.);
#121=EDGE_CURVE('',#133,#143,#177,.T.);
#122=EDGE_CURVE('',#130,#137,#178,.T.);
#123=EDGE_CURVE('',#149,#149,#16,.T.);
#124=EDGE_CURVE('',#150,#150,#17,.T.);
#125=EDGE_CURVE('',#151,#151,#18,.T.);
#126=EDGE_CURVE('',#152,#152,#19,.T.);
#127=EDGE_CURVE('',#153,#153,#20,.T.);
#128=EDGE_CURVE('',#154,#154,#21,.T.);
#129=VERTEX_POINT('',#415);
#130=VERTEX_POINT('',#416);
#131=VERTEX_POINT('',#418);
#132=VERTEX_POINT('',#420);
#133=VERTEX_POINT('',#422);
#134=VERTEX_POINT('',#424);
#135=VERTEX_POINT('',#426);
#136=VERTEX_POINT('',#428);
#137=VERTEX_POINT('',#432);
#138=VERTEX_POINT('',#433);
#139=VERTEX_POINT('',#435);
#140=VERTEX_POINT('',#437);
#141=VERTEX_POINT('',#439);
#142=VERTEX_POINT('',#441);
#143=VERTEX_POINT('',#443);
#144=VERTEX_POINT('',#445);
#145=VERTEX_POINT('',#449);
#146=VERTEX_POINT('',#451);
#147=VERTEX_POINT('',#454);
#148=VERTEX_POINT('',#462);
#149=VERTEX_POINT('',#471);
#150=VERTEX_POINT('',#474);
#151=VERTEX_POINT('',#478);
#152=VERTEX_POINT('',#481);
#153=VERTEX_POINT('',#484);
#154=VERTEX_POINT('',#488);
#155=LINE('',#414,#179);
#156=LINE('',#417,#180);
#157=LINE('',#419,#181);
#158=LINE('',#421,#182);
#159=LINE('',#423,#183);
#160=LINE('',#425,#184);
#161=LINE('',#427,#185);
#162=LINE('',#429,#186);
#163=LINE('',#431,#187);
#164=LINE('',#434,#188);
#165=LINE('',#436,#189);
#166=LINE('',#438,#190);
#167=LINE('',#440,#191);
#168=LINE('',#442,#192);
#169=LINE('',#444,#193);
#170=LINE('',#446,#194);
#171=LINE('',#455,#195);
#172=LINE('',#456,#196);
#173=LINE('',#458,#197);
#174=LINE('',#459,#198);
#175=LINE('',#464,#199);
#176=LINE('',#465,#200);
#177=LINE('',#467,#201);
#178=LINE('',#469,#202);
#179=VECTOR('',#336,1.);
#180=VECTOR('',#337,1.);
#181=VECTOR('',#338,1.);
#182=VECTOR('',#339,1.);
#183=VECTOR('',#340,1.);
#184=VECTOR('',#341,1.);
#185=VECTOR('',#342,1.);
#186=VECTOR('',#343,1.);
#187=VECTOR('',#346,1.);
#188=VECTOR('',#347,1.);
#189=VECTOR('',#348,1.);
#190=VECTOR('',#349,1.);
#191=VECTOR('',#350,1.);
#192=VECTOR('',#351,1.);
#193=VECTOR('',#352,1.);
#194=VECTOR('',#353,1.);
#195=VECTOR('',#364,1.);
#196=VECTOR('',#365,1.);
#197=VECTOR('',#368,1.);
#198=VECTOR('',#369,1.);
#199=VECTOR('',#376,1.);
#200=VECTOR('',#377,1.);
#201=VECTOR('',#380,1.);
#202=VECTOR('',#383,1.);
#203=EDGE_LOOP('',(#27,#28,#29,#30,#31,#32,#33,#34));
#204=EDGE_LOOP('',(#35,#36,#37,#38,#39,#40,#41,#42));
#205=EDGE_LOOP('',(#43));
#206=EDGE_LOOP('',(#44));
#207=EDGE_LOOP('',(#45));
#208=EDGE_LOOP('',(#46,#47,#48,#49));
#209=EDGE_LOOP('',(#50,#51,#52,#53));
#210=EDGE_LOOP('',(#54));
#211=EDGE_LOOP('',(#55));
#212=EDGE_LOOP('',(#56));
#213=EDGE_LOOP('',(#57,#58,#59,#60));
#214=EDGE_LOOP('',(#61,#62,#63,#64));
#215=EDGE_LOOP('',(#65,#66,#67,#68));
#216=EDGE_LOOP('',(#69));
#217=EDGE_LOOP('',(#70));
#218=EDGE_LOOP('',(#71));
#219=EDGE_LOOP('',(#72));
#220=EDGE_LOOP('',(#73,#74,#75,#76));
#221=EDGE_LOOP('',(#77));
#222=EDGE_LOOP('',(#78,#79,#80,#81));
#223=EDGE_LOOP('',(#82));
#224=EDGE_LOOP('',(#83,#84,#85,#86));
#225=EDGE_LOOP('',(#87));
#226=EDGE_LOOP('',(#88));
#227=EDGE_LOOP('',(#89));
#228=EDGE_LOOP('',(#90));
#229=EDGE_LOOP('',(#91));
#230=EDGE_LOOP('',(#92));
#231=EDGE_LOOP('',(#93));
#232=EDGE_LOOP('',(#94));
#233=FACE_BOUND('',#203,.T.);
#234=FACE_BOUND('',#204,.T.);
#235=FACE_BOUND('',#205,.T.);
#236=FACE_BOUND('',#206,.T.);
#237=FACE_BOUND('',#207,.T.);
#238=FACE_BOUND('',#208,.T.);
#239=FACE_BOUND('',#209,.T.);
#240=FACE_BOUND('',#210,.T.);
#241=FACE_BOUND('',#211,.T.);
#242=FACE_BOUND('',#212,.T.);
#243=FACE_BOUND('',#213,.T.);
#244=FACE_BOUND('',#214,.T.);
#245=FACE_BOUND('',#215,.T.);
#246=FACE_BOUND('',#216,.T.);
#247=FACE_BOUND('',#217,.T.);
#248=FACE_BOUND('',#218,.T.);
#249=FACE_BOUND('',#219,.T.);
#250=FACE_BOUND('',#220,.T.);
#251=FACE_BOUND('',#221,.T.);
#252=FACE_BOUND('',#222,.T.);
#253=FACE_BOUND('',#223,.T.);
#254=FACE_BOUND('',#224,.T.);
#255=FACE_BOUND('',#225,.T.);
#256=FACE_BOUND('',#226,.T.);
#257=FACE_BOUND('',#227,.T.);
#258=FACE_BOUND('',#228,.T.);
#259=FACE_BOUND('',#229,.T.);
#260=FACE_BOUND('',#230,.T.);
#261=FACE_BOUND('',#231,.T.);
#262=FACE_BOUND('',#232,.T.);
#263=PLANE('',#305);
#264=PLANE('',#306);
#265=PLANE('',#310);
#266=PLANE('',#312);
#267=PLANE('',#315);
#268=PLANE('',#316);
#269=PLANE('',#317);
#270=PLANE('',#321);
#271=PLANE('',#322);
#272=PLANE('',#324);
#273=PLANE('',#326);
#274=PLANE('',#331);
#275=ADVANCED_FACE('',(#233),#263,.T.);
#276=ADVANCED_FACE('',(#234),#264,.F.);
#277=ADVANCED_FACE('',(#235,#236),#22,.F.);
#278=ADVANCED_FACE('',(#237,#238),#265,.F.);
#279=ADVANCED_FACE('',(#239),#266,.T.);
#280=ADVANCED_FACE('',(#240,#241),#23,.F.);
#281=ADVANCED_FACE('',(#242,#243),#267,.F.);
#282=ADVANCED_FACE('',(#244),#268,.T.);
#283=ADVANCED_FACE('',(#245,#246),#269,.T.);
#284=ADVANCED_FACE('',(#247,#248),#24,.F.);
#285=ADVANCED_FACE('',(#249,#250),#270,.F.);
#286=ADVANCED_FACE('',(#251,#252),#271,.T.);
#287=ADVANCED_FACE('',(#253,#254),#272,.T.);
#288=ADVANCED_FACE('',(#255,#256),#273,.F.);
#289=ADVANCED_FACE('',(#257,#258),#25,.F.);
#290=ADVANCED_FACE('',(#259,#260),#26,.T.);
#291=ADVANCED_FACE('',(#261,#262),#274,.T.);
#292=CLOSED_SHELL('',(#275,#276,#277,#278,#279,#280,#281,#282,#283,#284,
#285,#286,#287,#288,#289,#290,#291));
#293=STYLED_ITEM('',(#294),#301);
#294=PRESENTATION_STYLE_ASSIGNMENT((#295));
#295=SURFACE_STYLE_USAGE(.BOTH.,#296);
#296=SURFACE_SIDE_STYLE('',(#297));
#297=SURFACE_STYLE_FILL_AREA(#298);
#298=FILL_AREA_STYLE('',(#299));
#299=FILL_AREA_STYLE_COLOUR('',#300);
#300=COLOUR_RGB('',0.615686274509804,0.811764705882353,0.929411764705882);
#301=MANIFOLD_SOLID_BREP('Part 1',#292);
#302=SHAPE_DEFINITION_REPRESENTATION(#496,#303);
#303=SHAPE_REPRESENTATION('Part 1',(#304),#491);
#304=AXIS2_PLACEMENT_3D('',#412,#332,#333);
#305=AXIS2_PLACEMENT_3D('',#413,#334,#335);
#306=AXIS2_PLACEMENT_3D('',#430,#344,#345);
#307=AXIS2_PLACEMENT_3D('',#447,#354,#355);
#308=AXIS2_PLACEMENT_3D('',#448,#356,#357);
#309=AXIS2_PLACEMENT_3D('',#450,#358,#359);
#310=AXIS2_PLACEMENT_3D('',#452,#360,#361);
#311=AXIS2_PLACEMENT_3D('',#453,#362,#363);
#312=AXIS2_PLACEMENT_3D('',#457,#366,#367);
#313=AXIS2_PLACEMENT_3D('',#460,#370,#371);
#314=AXIS2_PLACEMENT_3D('',#461,#372,#373);
#315=AXIS2_PLACEMENT_3D('',#463,#374,#375);
#316=AXIS2_PLACEMENT_3D('',#466,#378,#379);
#317=AXIS2_PLACEMENT_3D('',#468,#381,#382);
#318=AXIS2_PLACEMENT_3D('',#470,#384,#385);
#319=AXIS2_PLACEMENT_3D('',#472,#386,#387);
#320=AXIS2_PLACEMENT_3D('',#473,#388,#389);
#321=AXIS2_PLACEMENT_3D('',#475,#390,#391);
#322=AXIS2_PLACEMENT_3D('',#476,#392,#393);
#323=AXIS2_PLACEMENT_3D('',#477,#394,#395);
#324=AXIS2_PLACEMENT_3D('',#479,#396,#397);
#325=AXIS2_PLACEMENT_3D('',#480,#398,#399);
#326=AXIS2_PLACEMENT_3D('',#482,#400,#401);
#327=AXIS2_PLACEMENT_3D('',#483,#402,#403);
#328=AXIS2_PLACEMENT_3D('',#485,#404,#405);
#329=AXIS2_PLACEMENT_3D('',#486,#406,#407);
#330=AXIS2_PLACEMENT_3D('',#487,#408,#409);
#331=AXIS2_PLACEMENT_3D('',#489,#410,#411);
#332=DIRECTION('',(0.,0.,1.));
#333=DIRECTION('',(1.,0.,0.));
#334=DIRECTION('',(0.,1.,0.));
#335=DIRECTION('',(0.,0.,1.));
#336=DIRECTION('',(0.,0.,-1.));
#337=DIRECTION('',(1.,0.,0.));
#338=DIRECTION('',(0.,0.,-1.));
#339=DIRECTION('',(1.,0.,0.));
#340=DIRECTION('',(0.,0.,-1.));
#341=DIRECTION('',(1.,0.,0.));
#342=DIRECTION('',(0.,0.,-1.));
#343=DIRECTION('',(1.,0.,0.));
#344=DIRECTION('',(0.,1.,0.));
#345=DIRECTION('',(0.,0.,1.));
#346=DIRECTION('',(1.,0.,0.));
#347=DIRECTION('',(0.,0.,-1.));
#348=DIRECTION('',(1.,0.,0.));
#349=DIRECTION('',(0.,0.,-1.));
#350=DIRECTION('',(1.,0.,0.));
#351=DIRECTION('',(0.,0.,-1.));
#352=DIRECTION('',(1.,0.,0.));
#353=DIRECTION('',(0.,0.,-1.));
#354=DIRECTION('',(1.,-1.7347234759768E-16,0.));
#355=DIRECTION('',(1.7347234759768E-16,1.,0.));
#356=DIRECTION('',(1.,0.,0.));
#357=DIRECTION('',(0.,0.,-1.));
#358=DIRECTION('',(1.,-1.7347234759768E-16,0.));
#359=DIRECTION('',(1.7347234759768E-16,1.,0.));
#360=DIRECTION('',(0.,0.,1.));
#361=DIRECTION('',(1.,0.,0.));
#362=DIRECTION('',(0.,0.,1.));
#363=DIRECTION('',(1.,0.,0.));
#364=DIRECTION('',(-1.7347234759768E-16,-1.,0.));
#365=DIRECTION('',(-1.7347234759768E-16,-1.,0.));
#366=DIRECTION('',(0.,0.,1.));
#367=DIRECTION('',(1.,0.,0.));
#368=DIRECTION('',(-1.7347234759768E-16,-1.,0.));
#369=DIRECTION('',(0.,-1.,0.));
#370=DIRECTION('',(0.,0.,1.));
#371=DIRECTION('',(1.,0.,0.));
#372=DIRECTION('',(0.,0.,1.));
#373=DIRECTION('',(1.,0.,0.));
#374=DIRECTION('',(1.,0.,0.));
#375=DIRECTION('',(0.,0.,-1.));
#376=DIRECTION('',(0.,-1.,0.));
#377=DIRECTION('',(0.,-1.,0.));
#378=DIRECTION('',(0.,0.,1.));
#379=DIRECTION('',(1.,0.,0.));
#380=DIRECTION('',(-1.7347234759768E-16,-1.,0.));
#381=DIRECTION('',(1.,0.,0.));
#382=DIRECTION('',(0.,0.,-1.));
#383=DIRECTION('',(0.,-1.,0.));
#384=DIRECTION('',(1.,0.,0.));
#385=DIRECTION('',(0.,0.,-1.));
#386=DIRECTION('',(1.,-1.7347234759768E-16,0.));
#387=DIRECTION('',(1.7347234759768E-16,1.,0.));
#388=DIRECTION('',(1.,-1.7347234759768E-16,0.));
#389=DIRECTION('',(1.7347234759768E-16,1.,0.));
#390=DIRECTION('',(1.,-1.7347234759768E-16,0.));
#391=DIRECTION('',(1.7347234759768E-16,1.,0.));
#392=DIRECTION('',(1.,-1.7347234759768E-16,0.));
#393=DIRECTION('',(1.7347234759768E-16,1.,0.));
#394=DIRECTION('',(1.,-1.7347234759768E-16,0.));
#395=DIRECTION('',(1.7347234759768E-16,1.,0.));
#396=DIRECTION('',(0.,0.,1.));
#397=DIRECTION('',(1.,0.,0.));
#398=DIRECTION('',(0.,0.,1.));
#399=DIRECTION('',(1.,0.,0.));
#400=DIRECTION('',(0.,0.,1.));
#401=DIRECTION('',(1.,0.,0.));
#402=DIRECTION('',(0.,0.,1.));
#403=DIRECTION('',(1.,0.,0.));
#404=DIRECTION('',(0.,0.,1.));
#405=DIRECTION('',(1.,0.,0.));
#406=DIRECTION('',(-1.,1.73472347597681E-16,0.));
#407=DIRECTION('',(-1.73472347597681E-16,-1.,0.));
#408=DIRECTION('',(1.,-1.7347234759768E-16,0.));
#409=DIRECTION('',(1.7347234759768E-16,1.,0.));
#410=DIRECTION('',(1.,-1.7347234759768E-16,0.));
#411=DIRECTION('',(1.7347234759768E-16,1.,0.));
#412=CARTESIAN_POINT('',(0.,0.,0.));
#413=CARTESIAN_POINT('',(0.,0.02,0.006));
#414=CARTESIAN_POINT('',(-0.014835,0.02,0.046));
#415=CARTESIAN_POINT('',(-0.014835,0.02,0.046));
#416=CARTESIAN_POINT('',(-0.014835,0.02,0.009));
#417=CARTESIAN_POINT('',(0.,0.02,0.009));
#418=CARTESIAN_POINT('',(0.014835,0.02,0.009));
#419=CARTESIAN_POINT('',(0.014835,0.02,0.046));
#420=CARTESIAN_POINT('',(0.014835,0.02,0.046));
#421=CARTESIAN_POINT('',(0.,0.02,0.046));
#422=CARTESIAN_POINT('',(0.020835,0.02,0.046));
#423=CARTESIAN_POINT('',(0.020835,0.02,0.006));
#424=CARTESIAN_POINT('',(0.020835,0.02,0.));
#425=CARTESIAN_POINT('',(0.,0.02,0.));
#426=CARTESIAN_POINT('',(-0.020835,0.02,0.));
#427=CARTESIAN_POINT('',(-0.020835,0.02,0.006));
#428=CARTESIAN_POINT('',(-0.020835,0.02,0.046));
#429=CARTESIAN_POINT('',(0.,0.02,0.046));
#430=CARTESIAN_POINT('',(-6.93889390390723E-18,-0.02,0.006));
#431=CARTESIAN_POINT('',(-6.93889390390723E-18,-0.02,0.009));
#432=CARTESIAN_POINT('',(-0.014835,-0.02,0.009));
#433=CARTESIAN_POINT('',(0.014835,-0.02,0.009));
#434=CARTESIAN_POINT('',(-0.014835,-0.02,0.046));
#435=CARTESIAN_POINT('',(-0.014835,-0.02,0.046));
#436=CARTESIAN_POINT('',(-6.93889390390723E-18,-0.02,0.046));
#437=CARTESIAN_POINT('',(-0.020835,-0.02,0.046));
#438=CARTESIAN_POINT('',(-0.020835,-0.02,0.006));
#439=CARTESIAN_POINT('',(-0.020835,-0.02,0.));
#440=CARTESIAN_POINT('',(-6.93889390390723E-18,-0.02,0.));
#441=CARTESIAN_POINT('',(0.020835,-0.02,0.));
#442=CARTESIAN_POINT('',(0.020835,-0.02,0.006));
#443=CARTESIAN_POINT('',(0.020835,-0.02,0.046));
#444=CARTESIAN_POINT('',(-6.93889390390723E-18,-0.02,0.046));
#445=CARTESIAN_POINT('',(0.014835,-0.02,0.046));
#446=CARTESIAN_POINT('',(0.014835,-0.02,0.046));
#447=CARTESIAN_POINT('',(-0.108,1.87350135405495E-17,0.023));
#448=CARTESIAN_POINT('',(0.014835,-2.57346227661159E-18,0.023));
#449=CARTESIAN_POINT('',(0.014835,-2.57346227661159E-18,0.00995));
#450=CARTESIAN_POINT('',(0.025835,-4.48165810018608E-18,0.023));
#451=CARTESIAN_POINT('',(0.025835,0.01305,0.023));
#452=CARTESIAN_POINT('',(-3.46944695195361E-18,0.,0.));
#453=CARTESIAN_POINT('',(0.,8.11328504435121E-19,0.));
#454=CARTESIAN_POINT('',(0.01325,8.11328504435121E-19,0.));
#455=CARTESIAN_POINT('',(0.020835,-1.87957288622087E-18,0.));
#456=CARTESIAN_POINT('',(-0.020835,-3.32459754170955E-18,0.));
#457=CARTESIAN_POINT('',(-3.46944695195361E-18,0.,0.046));
#458=CARTESIAN_POINT('',(-0.020835,-3.32459754170955E-18,0.046));
#459=CARTESIAN_POINT('',(-0.014835,-0.01,0.046));
#460=CARTESIAN_POINT('',(0.,8.11328504435121E-19,-0.0209));
#461=CARTESIAN_POINT('',(0.,8.11328504435121E-19,0.006));
#462=CARTESIAN_POINT('',(0.01325,8.11328504435121E-19,0.006));
#463=CARTESIAN_POINT('',(0.014835,0.01,0.046));
#464=CARTESIAN_POINT('',(0.014835,0.01,0.009));
#465=CARTESIAN_POINT('',(0.014835,0.01,0.046));
#466=CARTESIAN_POINT('',(-3.46944695195361E-18,0.,0.046));
#467=CARTESIAN_POINT('',(0.020835,-1.87957288622087E-18,0.046));
#468=CARTESIAN_POINT('',(-0.014835,-0.01,0.046));
#469=CARTESIAN_POINT('',(-0.014835,-0.01,0.009));
#470=CARTESIAN_POINT('',(-0.014835,2.57346227661159E-18,0.023));
#471=CARTESIAN_POINT('',(-0.014835,2.57346227661159E-18,0.00995));
#472=CARTESIAN_POINT('',(-0.108,1.87350135405495E-17,0.023));
#473=CARTESIAN_POINT('',(-0.020835,3.61429636219768E-18,0.023));
#474=CARTESIAN_POINT('',(-0.020835,0.01305,0.023));
#475=CARTESIAN_POINT('',(-0.020835,-3.32459754170955E-18,0.006));
#476=CARTESIAN_POINT('',(0.020835,-1.87957288622087E-18,0.006));
#477=CARTESIAN_POINT('',(0.020835,-3.46944695195361E-18,0.023));
#478=CARTESIAN_POINT('',(0.020835,0.0145,0.023));
#479=CARTESIAN_POINT('',(-3.46944695195361E-18,0.,0.009));
#480=CARTESIAN_POINT('',(0.,7.99082036443648E-19,0.009));
#481=CARTESIAN_POINT('',(0.01305,7.99082036443648E-19,0.009));
#482=CARTESIAN_POINT('',(-3.46944695195361E-18,0.,0.006));
#483=CARTESIAN_POINT('',(0.,7.99082036443648E-19,0.006));
#484=CARTESIAN_POINT('',(0.01305,7.99082036443648E-19,0.006));
#485=CARTESIAN_POINT('',(0.,7.99082036443648E-19,-0.03));
#486=CARTESIAN_POINT('',(0.025835,-4.33680868994202E-18,0.023));
#487=CARTESIAN_POINT('',(0.025835,-4.33680868994202E-18,0.023));
#488=CARTESIAN_POINT('',(0.025835,0.0145,0.023));
#489=CARTESIAN_POINT('',(0.025835,-4.48165810018608E-18,0.023));
#490=MECHANICAL_DESIGN_GEOMETRIC_PRESENTATION_REPRESENTATION('',(#293),
#491);
#491=(
GEOMETRIC_REPRESENTATION_CONTEXT(3)
GLOBAL_UNCERTAINTY_ASSIGNED_CONTEXT((#492))
GLOBAL_UNIT_ASSIGNED_CONTEXT((#495,#494,#493))
REPRESENTATION_CONTEXT('Part 1','TOP_LEVEL_ASSEMBLY_PART')
);
#492=UNCERTAINTY_MEASURE_WITH_UNIT(LENGTH_MEASURE(1.E-8),#495,
'DISTANCE_ACCURACY_VALUE','Maximum Tolerance applied to model');
#493=(
NAMED_UNIT(*)
SI_UNIT($,.STERADIAN.)
SOLID_ANGLE_UNIT()
);
#494=(
NAMED_UNIT(*)
PLANE_ANGLE_UNIT()
SI_UNIT($,.RADIAN.)
);
#495=(
LENGTH_UNIT()
NAMED_UNIT(*)
SI_UNIT($,.METRE.)
);
#496=PRODUCT_DEFINITION_SHAPE('','',#497);
#497=PRODUCT_DEFINITION('','',#499,#498);
#498=PRODUCT_DEFINITION_CONTEXT('',#505,'design');
#499=PRODUCT_DEFINITION_FORMATION_WITH_SPECIFIED_SOURCE('','',#501,
 .NOT_KNOWN.);
#500=PRODUCT_RELATED_PRODUCT_CATEGORY('','',(#501));
#501=PRODUCT('Part 1','Part 1','Part 1',(#503));
#502=PRODUCT_CATEGORY('','');
#503=PRODUCT_CONTEXT('',#505,'mechanical');
#504=APPLICATION_PROTOCOL_DEFINITION('international standard',
'ap242_managed_model_based_3d_engineering',2020,#505);
#505=APPLICATION_CONTEXT('managed model based 3d engineering');
ENDSEC;
END-ISO-10303-21;
