ISO-10303-21;
HEADER;
/* Generated by software containing ST-Developer
 * from STEP Tools, Inc. (www.steptools.com) 
 */
/* OPTION: using custom renumber hook */

FILE_DESCRIPTION(
/* description */ ('STEP AP242 Edition 2',
'CAx-IF Rec.Pracs.---Representation and Presentation of Product Manufa
cturing Information (PMI)---4.0---2014-10-13',
'CAx-IF Rec.Pracs.---3D Tessellated Geometry---0.4---2014-09-14','2;1',
'CAx-IF Rec.Pracs.---User Defined Attributes---1.5---2016-08-15'),
/* implementation_level */ '2;1');

FILE_NAME(
/* name */ 'Part Studio 1',
/* time_stamp */ '2026-09-01T22:45:18Z',
/* author */ (''),
/* organization */ (''),
/* preprocessor_version */ 'ST-DEVELOPER v20',
/* originating_system */ 'ONSHAPE BY PTC INC, 1.220',
/* authorisation */ '  ');

FILE_SCHEMA (('AP242_MANAGED_MODEL_BASED_3D_ENGINEERING_MIM_LF { 1 0 10303 442 3 1 4 }'));
ENDSEC;

DATA;
#10=SHAPE_REPRESENTATION_RELATIONSHIP('','',#281,#11);
#11=ADVANCED_BREP_SHAPE_REPRESENTATION('',(#279),#451);
#12=CYLINDRICAL_SURFACE('',#292,0.004445);
#13=CYLINDRICAL_SURFACE('',#301,0.004445);
#14=CYLINDRICAL_SURFACE('',#302,0.004445);
#15=CYLINDRICAL_SURFACE('',#303,0.00635);
#16=LINE('',#382,#40);
#17=LINE('',#385,#41);
#18=LINE('',#387,#42);
#19=LINE('',#389,#43);
#20=LINE('',#391,#44);
#21=LINE('',#394,#45);
#22=LINE('',#396,#46);
#23=LINE('',#398,#47);
#24=LINE('',#400,#48);
#25=LINE('',#402,#49);
#26=LINE('',#404,#50);
#27=LINE('',#406,#51);
#28=LINE('',#408,#52);
#29=LINE('',#409,#53);
#30=LINE('',#411,#54);
#31=LINE('',#413,#55);
#32=LINE('',#414,#56);
#33=LINE('',#416,#57);
#34=LINE('',#418,#58);
#35=LINE('',#420,#59);
#36=LINE('',#427,#60);
#37=LINE('',#434,#61);
#38=LINE('',#438,#62);
#39=LINE('',#442,#63);
#40=VECTOR('',#312,1.);
#41=VECTOR('',#313,1.);
#42=VECTOR('',#314,1.);
#43=VECTOR('',#315,1.);
#44=VECTOR('',#318,1.);
#45=VECTOR('',#319,1.);
#46=VECTOR('',#320,1.);
#47=VECTOR('',#321,1.);
#48=VECTOR('',#324,1.);
#49=VECTOR('',#325,1.);
#50=VECTOR('',#326,1.);
#51=VECTOR('',#327,1.);
#52=VECTOR('',#328,1.);
#53=VECTOR('',#329,1.);
#54=VECTOR('',#332,1.);
#55=VECTOR('',#333,1.);
#56=VECTOR('',#334,1.);
#57=VECTOR('',#335,1.);
#58=VECTOR('',#336,1.);
#59=VECTOR('',#337,1.);
#60=VECTOR('',#346,1.);
#61=VECTOR('',#355,1.);
#62=VECTOR('',#360,1.);
#63=VECTOR('',#365,1.);
#64=ORIENTED_EDGE('',*,*,#128,.F.);
#65=ORIENTED_EDGE('',*,*,#129,.F.);
#66=ORIENTED_EDGE('',*,*,#130,.T.);
#67=ORIENTED_EDGE('',*,*,#131,.T.);
#68=ORIENTED_EDGE('',*,*,#132,.F.);
#69=ORIENTED_EDGE('',*,*,#133,.F.);
#70=ORIENTED_EDGE('',*,*,#134,.F.);
#71=ORIENTED_EDGE('',*,*,#135,.T.);
#72=ORIENTED_EDGE('',*,*,#136,.T.);
#73=ORIENTED_EDGE('',*,*,#137,.T.);
#74=ORIENTED_EDGE('',*,*,#138,.F.);
#75=ORIENTED_EDGE('',*,*,#139,.T.);
#76=ORIENTED_EDGE('',*,*,#140,.T.);
#77=ORIENTED_EDGE('',*,*,#141,.T.);
#78=ORIENTED_EDGE('',*,*,#129,.T.);
#79=ORIENTED_EDGE('',*,*,#142,.F.);
#80=ORIENTED_EDGE('',*,*,#134,.T.);
#81=ORIENTED_EDGE('',*,*,#143,.F.);
#82=ORIENTED_EDGE('',*,*,#136,.F.);
#83=ORIENTED_EDGE('',*,*,#144,.T.);
#84=ORIENTED_EDGE('',*,*,#131,.F.);
#85=ORIENTED_EDGE('',*,*,#145,.F.);
#86=ORIENTED_EDGE('',*,*,#146,.F.);
#87=ORIENTED_EDGE('',*,*,#147,.F.);
#88=ORIENTED_EDGE('',*,*,#148,.T.);
#89=ORIENTED_EDGE('',*,*,#149,.F.);
#90=ORIENTED_EDGE('',*,*,#135,.F.);
#91=ORIENTED_EDGE('',*,*,#142,.T.);
#92=ORIENTED_EDGE('',*,*,#132,.T.);
#93=ORIENTED_EDGE('',*,*,#144,.F.);
#94=ORIENTED_EDGE('',*,*,#150,.F.);
#95=ORIENTED_EDGE('',*,*,#133,.T.);
#96=ORIENTED_EDGE('',*,*,#143,.T.);
#97=ORIENTED_EDGE('',*,*,#151,.F.);
#98=ORIENTED_EDGE('',*,*,#137,.F.);
#99=ORIENTED_EDGE('',*,*,#149,.T.);
#100=ORIENTED_EDGE('',*,*,#152,.F.);
#101=ORIENTED_EDGE('',*,*,#153,.T.);
#102=ORIENTED_EDGE('',*,*,#151,.T.);
#103=ORIENTED_EDGE('',*,*,#148,.F.);
#104=ORIENTED_EDGE('',*,*,#154,.F.);
#105=ORIENTED_EDGE('',*,*,#138,.T.);
#106=ORIENTED_EDGE('',*,*,#155,.T.);
#107=ORIENTED_EDGE('',*,*,#147,.T.);
#108=ORIENTED_EDGE('',*,*,#156,.F.);
#109=ORIENTED_EDGE('',*,*,#139,.F.);
#110=ORIENTED_EDGE('',*,*,#154,.T.);
#111=ORIENTED_EDGE('',*,*,#157,.T.);
#112=ORIENTED_EDGE('',*,*,#130,.F.);
#113=ORIENTED_EDGE('',*,*,#141,.F.);
#114=ORIENTED_EDGE('',*,*,#158,.T.);
#115=ORIENTED_EDGE('',*,*,#145,.T.);
#116=ORIENTED_EDGE('',*,*,#158,.F.);
#117=ORIENTED_EDGE('',*,*,#140,.F.);
#118=ORIENTED_EDGE('',*,*,#156,.T.);
#119=ORIENTED_EDGE('',*,*,#146,.T.);
#120=ORIENTED_EDGE('',*,*,#155,.F.);
#121=ORIENTED_EDGE('',*,*,#157,.F.);
#122=ORIENTED_EDGE('',*,*,#128,.T.);
#123=ORIENTED_EDGE('',*,*,#153,.F.);
#124=ORIENTED_EDGE('',*,*,#159,.F.);
#125=ORIENTED_EDGE('',*,*,#150,.T.);
#126=ORIENTED_EDGE('',*,*,#152,.T.);
#127=ORIENTED_EDGE('',*,*,#159,.T.);
#128=EDGE_CURVE('',#160,#160,#184,.T.);
#129=EDGE_CURVE('',#161,#162,#16,.T.);
#130=EDGE_CURVE('',#161,#163,#17,.T.);
#131=EDGE_CURVE('',#163,#164,#18,.T.);
#132=EDGE_CURVE('',#162,#164,#19,.T.);
#133=EDGE_CURVE('',#165,#166,#20,.T.);
#134=EDGE_CURVE('',#167,#165,#21,.T.);
#135=EDGE_CURVE('',#167,#168,#22,.T.);
#136=EDGE_CURVE('',#168,#166,#23,.T.);
#137=EDGE_CURVE('',#165,#169,#24,.T.);
#138=EDGE_CURVE('',#170,#169,#25,.T.);
#139=EDGE_CURVE('',#170,#171,#26,.T.);
#140=EDGE_CURVE('',#171,#172,#27,.T.);
#141=EDGE_CURVE('',#172,#161,#28,.T.);
#142=EDGE_CURVE('',#167,#162,#29,.T.);
#143=EDGE_CURVE('',#166,#173,#30,.T.);
#144=EDGE_CURVE('',#168,#164,#31,.T.);
#145=EDGE_CURVE('',#174,#163,#32,.T.);
#146=EDGE_CURVE('',#175,#174,#33,.T.);
#147=EDGE_CURVE('',#176,#175,#34,.T.);
#148=EDGE_CURVE('',#176,#173,#35,.T.);
#149=EDGE_CURVE('',#177,#177,#185,.T.);
#150=EDGE_CURVE('',#178,#178,#186,.T.);
#151=EDGE_CURVE('',#169,#173,#36,.T.);
#152=EDGE_CURVE('',#179,#179,#187,.T.);
#153=EDGE_CURVE('',#180,#180,#188,.T.);
#154=EDGE_CURVE('',#170,#176,#37,.T.);
#155=EDGE_CURVE('',#181,#181,#189,.F.);
#156=EDGE_CURVE('',#171,#175,#38,.T.);
#157=EDGE_CURVE('',#182,#182,#190,.F.);
#158=EDGE_CURVE('',#172,#174,#39,.T.);
#159=EDGE_CURVE('',#183,#183,#191,.T.);
#160=VERTEX_POINT('',#381);
#161=VERTEX_POINT('',#383);
#162=VERTEX_POINT('',#384);
#163=VERTEX_POINT('',#386);
#164=VERTEX_POINT('',#388);
#165=VERTEX_POINT('',#392);
#166=VERTEX_POINT('',#393);
#167=VERTEX_POINT('',#395);
#168=VERTEX_POINT('',#397);
#169=VERTEX_POINT('',#401);
#170=VERTEX_POINT('',#403);
#171=VERTEX_POINT('',#405);
#172=VERTEX_POINT('',#407);
#173=VERTEX_POINT('',#412);
#174=VERTEX_POINT('',#415);
#175=VERTEX_POINT('',#417);
#176=VERTEX_POINT('',#419);
#177=VERTEX_POINT('',#423);
#178=VERTEX_POINT('',#426);
#179=VERTEX_POINT('',#430);
#180=VERTEX_POINT('',#433);
#181=VERTEX_POINT('',#437);
#182=VERTEX_POINT('',#441);
#183=VERTEX_POINT('',#448);
#184=CIRCLE('',#284,0.004445);
#185=CIRCLE('',#289,0.004445);
#186=CIRCLE('',#291,0.00635);
#187=CIRCLE('',#293,0.004445);
#188=CIRCLE('',#295,0.004445);
#189=CIRCLE('',#297,0.004445);
#190=CIRCLE('',#299,0.004445);
#191=CIRCLE('',#304,0.00635);
#192=EDGE_LOOP('',(#64));
#193=EDGE_LOOP('',(#65,#66,#67,#68));
#194=EDGE_LOOP('',(#69,#70,#71,#72));
#195=EDGE_LOOP('',(#73,#74,#75,#76,#77,#78,#79,#80));
#196=EDGE_LOOP('',(#81,#82,#83,#84,#85,#86,#87,#88));
#197=EDGE_LOOP('',(#89));
#198=EDGE_LOOP('',(#90,#91,#92,#93));
#199=EDGE_LOOP('',(#94));
#200=EDGE_LOOP('',(#95,#96,#97,#98));
#201=EDGE_LOOP('',(#99));
#202=EDGE_LOOP('',(#100));
#203=EDGE_LOOP('',(#101));
#204=EDGE_LOOP('',(#102,#103,#104,#105));
#205=EDGE_LOOP('',(#106));
#206=EDGE_LOOP('',(#107,#108,#109,#110));
#207=EDGE_LOOP('',(#111));
#208=EDGE_LOOP('',(#112,#113,#114,#115));
#209=EDGE_LOOP('',(#116,#117,#118,#119));
#210=EDGE_LOOP('',(#120));
#211=EDGE_LOOP('',(#121));
#212=EDGE_LOOP('',(#122));
#213=EDGE_LOOP('',(#123));
#214=EDGE_LOOP('',(#124));
#215=EDGE_LOOP('',(#125));
#216=EDGE_LOOP('',(#126));
#217=EDGE_LOOP('',(#127));
#218=FACE_BOUND('',#192,.T.);
#219=FACE_BOUND('',#193,.T.);
#220=FACE_BOUND('',#194,.T.);
#221=FACE_BOUND('',#195,.T.);
#222=FACE_BOUND('',#196,.T.);
#223=FACE_BOUND('',#197,.T.);
#224=FACE_BOUND('',#198,.T.);
#225=FACE_BOUND('',#199,.T.);
#226=FACE_BOUND('',#200,.T.);
#227=FACE_BOUND('',#201,.T.);
#228=FACE_BOUND('',#202,.T.);
#229=FACE_BOUND('',#203,.T.);
#230=FACE_BOUND('',#204,.T.);
#231=FACE_BOUND('',#205,.T.);
#232=FACE_BOUND('',#206,.T.);
#233=FACE_BOUND('',#207,.T.);
#234=FACE_BOUND('',#208,.T.);
#235=FACE_BOUND('',#209,.T.);
#236=FACE_BOUND('',#210,.T.);
#237=FACE_BOUND('',#211,.T.);
#238=FACE_BOUND('',#212,.T.);
#239=FACE_BOUND('',#213,.T.);
#240=FACE_BOUND('',#214,.T.);
#241=FACE_BOUND('',#215,.T.);
#242=FACE_BOUND('',#216,.T.);
#243=FACE_BOUND('',#217,.T.);
#244=PLANE('',#283);
#245=PLANE('',#285);
#246=PLANE('',#286);
#247=PLANE('',#287);
#248=PLANE('',#288);
#249=PLANE('',#290);
#250=PLANE('',#294);
#251=PLANE('',#296);
#252=PLANE('',#298);
#253=PLANE('',#300);
#254=PLANE('',#305);
#255=ADVANCED_FACE('',(#218,#219),#244,.T.);
#256=ADVANCED_FACE('',(#220),#245,.T.);
#257=ADVANCED_FACE('',(#221),#246,.F.);
#258=ADVANCED_FACE('',(#222),#247,.T.);
#259=ADVANCED_FACE('',(#223,#224),#248,.T.);
#260=ADVANCED_FACE('',(#225,#226),#249,.F.);
#261=ADVANCED_FACE('',(#227,#228),#12,.F.);
#262=ADVANCED_FACE('',(#229,#230),#250,.F.);
#263=ADVANCED_FACE('',(#231,#232),#251,.T.);
#264=ADVANCED_FACE('',(#233,#234),#252,.T.);
#265=ADVANCED_FACE('',(#235),#253,.T.);
#266=ADVANCED_FACE('',(#236,#237),#13,.F.);
#267=ADVANCED_FACE('',(#238,#239),#14,.F.);
#268=ADVANCED_FACE('',(#240,#241),#15,.T.);
#269=ADVANCED_FACE('',(#242,#243),#254,.T.);
#270=CLOSED_SHELL('',(#255,#256,#257,#258,#259,#260,#261,#262,#263,#264,
#265,#266,#267,#268,#269));
#271=STYLED_ITEM('',(#272),#279);
#272=PRESENTATION_STYLE_ASSIGNMENT((#273));
#273=SURFACE_STYLE_USAGE(.BOTH.,#274);
#274=SURFACE_SIDE_STYLE('',(#275));
#275=SURFACE_STYLE_FILL_AREA(#276);
#276=FILL_AREA_STYLE('',(#277));
#277=FILL_AREA_STYLE_COLOUR('',#278);
#278=COLOUR_RGB('',0.615686274509804,0.811764705882353,0.929411764705882);
#279=MANIFOLD_SOLID_BREP('Part 1',#270);
#280=SHAPE_DEFINITION_REPRESENTATION(#456,#281);
#281=SHAPE_REPRESENTATION('Part 1',(#282),#451);
#282=AXIS2_PLACEMENT_3D('',#378,#306,#307);
#283=AXIS2_PLACEMENT_3D('',#379,#308,#309);
#284=AXIS2_PLACEMENT_3D('',#380,#310,#311);
#285=AXIS2_PLACEMENT_3D('',#390,#316,#317);
#286=AXIS2_PLACEMENT_3D('',#399,#322,#323);
#287=AXIS2_PLACEMENT_3D('',#410,#330,#331);
#288=AXIS2_PLACEMENT_3D('',#421,#338,#339);
#289=AXIS2_PLACEMENT_3D('',#422,#340,#341);
#290=AXIS2_PLACEMENT_3D('',#424,#342,#343);
#291=AXIS2_PLACEMENT_3D('',#425,#344,#345);
#292=AXIS2_PLACEMENT_3D('',#428,#347,#348);
#293=AXIS2_PLACEMENT_3D('',#429,#349,#350);
#294=AXIS2_PLACEMENT_3D('',#431,#351,#352);
#295=AXIS2_PLACEMENT_3D('',#432,#353,#354);
#296=AXIS2_PLACEMENT_3D('',#435,#356,#357);
#297=AXIS2_PLACEMENT_3D('',#436,#358,#359);
#298=AXIS2_PLACEMENT_3D('',#439,#361,#362);
#299=AXIS2_PLACEMENT_3D('',#440,#363,#364);
#300=AXIS2_PLACEMENT_3D('',#443,#366,#367);
#301=AXIS2_PLACEMENT_3D('',#444,#368,#369);
#302=AXIS2_PLACEMENT_3D('',#445,#370,#371);
#303=AXIS2_PLACEMENT_3D('',#446,#372,#373);
#304=AXIS2_PLACEMENT_3D('',#447,#374,#375);
#305=AXIS2_PLACEMENT_3D('',#449,#376,#377);
#306=DIRECTION('',(0.,0.,1.));
#307=DIRECTION('',(1.,0.,0.));
#308=DIRECTION('',(0.,0.,1.));
#309=DIRECTION('',(1.,0.,0.));
#310=DIRECTION('',(0.,0.,1.));
#311=DIRECTION('',(1.,0.,0.));
#312=DIRECTION('',(0.,1.,0.));
#313=DIRECTION('',(1.,0.,0.));
#314=DIRECTION('',(0.,1.,0.));
#315=DIRECTION('',(1.,0.,0.));
#316=DIRECTION('',(0.,0.,1.));
#317=DIRECTION('',(1.,0.,0.));
#318=DIRECTION('',(1.,0.,0.));
#319=DIRECTION('',(0.,1.,0.));
#320=DIRECTION('',(1.,0.,0.));
#321=DIRECTION('',(0.,1.,0.));
#322=DIRECTION('',(1.,0.,-1.57606615019092E-16));
#323=DIRECTION('',(-1.57606615019092E-16,0.,-1.));
#324=DIRECTION('',(-1.57606615019092E-16,0.,-1.));
#325=DIRECTION('',(0.,1.,0.));
#326=DIRECTION('',(0.,0.,1.));
#327=DIRECTION('',(0.,1.,0.));
#328=DIRECTION('',(0.,0.,-1.));
#329=DIRECTION('',(-1.57606615019092E-16,0.,-1.));
#330=DIRECTION('',(1.,0.,-1.57606615019092E-16));
#331=DIRECTION('',(-1.57606615019092E-16,0.,-1.));
#332=DIRECTION('',(-1.57606615019092E-16,0.,-1.));
#333=DIRECTION('',(-1.57606615019092E-16,0.,-1.));
#334=DIRECTION('',(0.,0.,-1.));
#335=DIRECTION('',(0.,1.,0.));
#336=DIRECTION('',(0.,0.,1.));
#337=DIRECTION('',(0.,1.,0.));
#338=DIRECTION('',(0.,-1.,0.));
#339=DIRECTION('',(1.,0.,0.));
#340=DIRECTION('',(0.,-1.,0.));
#341=DIRECTION('',(0.,0.,-1.));
#342=DIRECTION('',(0.,-1.,0.));
#343=DIRECTION('',(1.,0.,0.));
#344=DIRECTION('',(0.,1.,0.));
#345=DIRECTION('',(0.,0.,1.));
#346=DIRECTION('',(1.,0.,0.));
#347=DIRECTION('',(0.,-1.,0.));
#348=DIRECTION('',(0.,0.,-1.));
#349=DIRECTION('',(0.,-1.,0.));
#350=DIRECTION('',(0.,0.,-1.));
#351=DIRECTION('',(0.,0.,1.));
#352=DIRECTION('',(1.,0.,0.));
#353=DIRECTION('',(0.,0.,1.));
#354=DIRECTION('',(1.,0.,0.));
#355=DIRECTION('',(1.,0.,0.));
#356=DIRECTION('',(0.,-1.,0.));
#357=DIRECTION('',(0.,0.,-1.));
#358=DIRECTION('',(0.,-1.,0.));
#359=DIRECTION('',(0.,0.,-1.));
#360=DIRECTION('',(1.,0.,0.));
#361=DIRECTION('',(0.,1.,0.));
#362=DIRECTION('',(0.,0.,1.));
#363=DIRECTION('',(0.,1.,0.));
#364=DIRECTION('',(0.,0.,1.));
#365=DIRECTION('',(1.,0.,0.));
#366=DIRECTION('',(0.,0.,1.));
#367=DIRECTION('',(1.,0.,0.));
#368=DIRECTION('',(0.,1.,0.));
#369=DIRECTION('',(0.,0.,1.));
#370=DIRECTION('',(0.,0.,1.));
#371=DIRECTION('',(1.,0.,0.));
#372=DIRECTION('',(0.,-1.,0.));
#373=DIRECTION('',(0.,0.,-1.));
#374=DIRECTION('',(0.,1.,0.));
#375=DIRECTION('',(0.,0.,1.));
#376=DIRECTION('',(0.,1.,0.));
#377=DIRECTION('',(-1.,0.,0.));
#378=CARTESIAN_POINT('',(0.,0.,0.));
#379=CARTESIAN_POINT('',(-1.7347234759768E-18,-0.03294,-0.01651));
#380=CARTESIAN_POINT('',(-2.60208521396521E-18,-0.01897,-0.01651));
#381=CARTESIAN_POINT('',(0.004445,-0.01897,-0.01651));
#382=CARTESIAN_POINT('',(-0.01397,-0.03294,-0.01651));
#383=CARTESIAN_POINT('',(-0.01397,-0.03294,-0.01651));
#384=CARTESIAN_POINT('',(-0.01397,-0.005,-0.01651));
#385=CARTESIAN_POINT('',(-5.20417042793042E-18,-0.03294,-0.01651));
#386=CARTESIAN_POINT('',(0.01397,-0.03294,-0.01651));
#387=CARTESIAN_POINT('',(0.01397,-0.03294,-0.01651));
#388=CARTESIAN_POINT('',(0.01397,-0.005,-0.01651));
#389=CARTESIAN_POINT('',(-3.46944695195361E-18,-0.005,-0.01651));
#390=CARTESIAN_POINT('',(3.46944695195361E-18,-0.005,0.01651));
#391=CARTESIAN_POINT('',(3.46944695195361E-18,0.,0.01651));
#392=CARTESIAN_POINT('',(-0.01397,0.,0.01651));
#393=CARTESIAN_POINT('',(0.01397,0.,0.01651));
#394=CARTESIAN_POINT('',(-0.01397,-0.005,0.01651));
#395=CARTESIAN_POINT('',(-0.01397,-0.005,0.01651));
#396=CARTESIAN_POINT('',(3.46944695195361E-18,-0.005,0.01651));
#397=CARTESIAN_POINT('',(0.01397,-0.005,0.01651));
#398=CARTESIAN_POINT('',(0.01397,-0.005,0.01651));
#399=CARTESIAN_POINT('',(-0.01397,-0.005,0.));
#400=CARTESIAN_POINT('',(-0.01397,0.,0.));
#401=CARTESIAN_POINT('',(-0.01397,0.,-0.01951));
#402=CARTESIAN_POINT('',(-0.01397,-0.03294,-0.01951));
#403=CARTESIAN_POINT('',(-0.01397,-0.03794,-0.01951));
#404=CARTESIAN_POINT('',(-0.01397,-0.03794,-0.01951));
#405=CARTESIAN_POINT('',(-0.01397,-0.03794,0.01651));
#406=CARTESIAN_POINT('',(-0.01397,-0.03294,0.01651));
#407=CARTESIAN_POINT('',(-0.01397,-0.03294,0.01651));
#408=CARTESIAN_POINT('',(-0.01397,-0.03294,0.01651));
#409=CARTESIAN_POINT('',(-0.01397,-0.005,0.));
#410=CARTESIAN_POINT('',(0.01397,-0.005,0.));
#411=CARTESIAN_POINT('',(0.01397,0.,0.));
#412=CARTESIAN_POINT('',(0.01397,0.,-0.01951));
#413=CARTESIAN_POINT('',(0.01397,-0.005,0.));
#414=CARTESIAN_POINT('',(0.01397,-0.03294,0.01651));
#415=CARTESIAN_POINT('',(0.01397,-0.03294,0.01651));
#416=CARTESIAN_POINT('',(0.01397,-0.03294,0.01651));
#417=CARTESIAN_POINT('',(0.01397,-0.03794,0.01651));
#418=CARTESIAN_POINT('',(0.01397,-0.03794,-0.01951));
#419=CARTESIAN_POINT('',(0.01397,-0.03794,-0.01951));
#420=CARTESIAN_POINT('',(0.01397,-0.03294,-0.01951));
#421=CARTESIAN_POINT('',(0.,-0.005,0.));
#422=CARTESIAN_POINT('',(0.,-0.005,2.721777511105E-19));
#423=CARTESIAN_POINT('',(0.,-0.005,-0.004445));
#424=CARTESIAN_POINT('',(0.,0.,0.));
#425=CARTESIAN_POINT('',(0.,0.,3.88825358729284E-19));
#426=CARTESIAN_POINT('',(0.,0.,0.00635));
#427=CARTESIAN_POINT('',(-1.7347234759768E-18,0.,-0.01951));
#428=CARTESIAN_POINT('',(0.,0.02,2.721777511105E-19));
#429=CARTESIAN_POINT('',(0.,0.0125,2.721777511105E-19));
#430=CARTESIAN_POINT('',(0.,0.0125,-0.004445));
#431=CARTESIAN_POINT('',(-1.7347234759768E-18,-0.03294,-0.01951));
#432=CARTESIAN_POINT('',(-2.60208521396521E-18,-0.01897,-0.01951));
#433=CARTESIAN_POINT('',(0.004445,-0.01897,-0.01951));
#434=CARTESIAN_POINT('',(-1.7347234759768E-18,-0.03794,-0.01951));
#435=CARTESIAN_POINT('',(-1.7347234759768E-18,-0.03794,-0.01951));
#436=CARTESIAN_POINT('',(0.,-0.03794,2.721777511105E-19));
#437=CARTESIAN_POINT('',(0.,-0.03794,-0.004445));
#438=CARTESIAN_POINT('',(-1.7347234759768E-18,-0.03794,0.01651));
#439=CARTESIAN_POINT('',(-5.20417042793042E-18,-0.03294,0.01651));
#440=CARTESIAN_POINT('',(0.,-0.03294,2.721777511105E-19));
#441=CARTESIAN_POINT('',(0.,-0.03294,0.004445));
#442=CARTESIAN_POINT('',(-5.20417042793042E-18,-0.03294,0.01651));
#443=CARTESIAN_POINT('',(-3.46944695195361E-18,-0.02147,0.01651));
#444=CARTESIAN_POINT('',(0.,-0.0532,2.721777511105E-19));
#445=CARTESIAN_POINT('',(-2.60208521396521E-18,-0.01897,-0.07551));
#446=CARTESIAN_POINT('',(0.,0.0125,3.88825358729284E-19));
#447=CARTESIAN_POINT('',(0.,0.0125,3.88825358729284E-19));
#448=CARTESIAN_POINT('',(0.,0.0125,0.00635));
#449=CARTESIAN_POINT('',(0.,0.0125,-0.0015));
#450=MECHANICAL_DESIGN_GEOMETRIC_PRESENTATION_REPRESENTATION('',(#271),
#451);
#451=(
GEOMETRIC_REPRESENTATION_CONTEXT(3)
GLOBAL_UNCERTAINTY_ASSIGNED_CONTEXT((#452))
GLOBAL_UNIT_ASSIGNED_CONTEXT((#455,#454,#453))
REPRESENTATION_CONTEXT('Part 1','TOP_LEVEL_ASSEMBLY_PART')
);
#452=UNCERTAINTY_MEASURE_WITH_UNIT(LENGTH_MEASURE(1.E-8),#455,
'DISTANCE_ACCURACY_VALUE','Maximum Tolerance applied to model');
#453=(
NAMED_UNIT(*)
SI_UNIT($,.STERADIAN.)
SOLID_ANGLE_UNIT()
);
#454=(
NAMED_UNIT(*)
PLANE_ANGLE_UNIT()
SI_UNIT($,.RADIAN.)
);
#455=(
LENGTH_UNIT()
NAMED_UNIT(*)
SI_UNIT($,.METRE.)
);
#456=PRODUCT_DEFINITION_SHAPE('','',#457);
#457=PRODUCT_DEFINITION('','',#459,#458);
#458=PRODUCT_DEFINITION_CONTEXT('',#465,'design');
#459=PRODUCT_DEFINITION_FORMATION_WITH_SPECIFIED_SOURCE('','',#461,
 .NOT_KNOWN.);
#460=PRODUCT_RELATED_PRODUCT_CATEGORY('','',(#461));
#461=PRODUCT('Part 1','Part 1','Part 1',(#463));
#462=PRODUCT_CATEGORY('','');
#463=PRODUCT_CONTEXT('',#465,'mechanical');
#464=APPLICATION_PROTOCOL_DEFINITION('international standard',
'ap242_managed_model_based_3d_engineering',2020,#465);
#465=APPLICATION_CONTEXT('managed model based 3d engineering');
ENDSEC;
END-ISO-10303-21;
